0
SECTION
2
HEADER
9
$INSUNITS
70
4
0
ENDSEC
0
SECTION
2
TABLES
0
TABLE
2
LTYPE
0
LTYPE
72
65
70
64
2
CONTINUOUS
3
______
73
0
40
0
0
ENDTAB
0
TABLE
2
LAYER
0
ENDTAB
0
ENDSEC
0
SECTION
2
ENTITIES
0
LINE
8
0
10
27.5
20
-92.5
11
42.5
21
-92.5
0
ARC
8
0
10
27.5
20
-75.5
40
2
50
149.9999999
51
180
0
LINE
8
0
10
25.5
20
-75.5
11
25.5
21
-90.5
0
ARC
8
0
10
27.5
20
-90.5
40
2
50
180
51
270
0
ARC
8
0
10
27.5
20
-58.5
40
2
50
149.9999999
51
180
0
LINE
8
0
10
25.5
20
-58.5
11
25.5
21
-73.5
0
ARC
8
0
10
27.5
20
-73.5
40
2
50
180
51
210.0000001
0
ARC
8
0
10
27.5
20
-41.5
40
2
50
149.9999999
51
180
0
LINE
8
0
10
25.5
20
-41.5
11
25.5
21
-56.5
0
ARC
8
0
10
27.5
20
-56.5
40
2
50
180
51
210.0000001
0
LINE
8
0
10
42.5
20
-22.5
11
27.5
21
-22.5
0
ARC
8
0
10
27.5
20
-24.5
40
2
50
90
51
180
0
LINE
8
0
10
25.5
20
-24.5
11
25.5
21
-39.5
0
ARC
8
0
10
27.5
20
-39.5
40
2
50
180
51
210.0000001
0
LINE
8
0
10
44.5
20
-105.25
11
59.5
21
-105.25
0
ARC
8
0
10
59.5
20
-103.25
40
2
50
270
51
360
0
LINE
8
0
10
61.5
20
-103.25
11
61.5
21
-94.03
0
LINE
8
0
10
42.5
20
-92.5
11
42.5
21
-103.25
0
ARC
8
0
10
44.5
20
-103.25
40
2
50
180
51
270
0
LINE
8
0
10
59.5
20
-18.25
11
44.5
21
-18.25
0
ARC
8
0
10
44.5
20
-20.25
40
2
50
90
51
180
0
LINE
8
0
10
42.5
20
-20.25
11
42.5
21
-22.5
0
LINE
8
0
10
61.5
20
-94.03
11
76.5
21
-94.03
0
ARC
8
0
10
76.5
20
-92.03
40
2
50
270
51
290.8930457
0
LINE
8
0
10
78.5
20
-11.28
11
78.5
21
-9.03
0
ARC
8
0
10
76.5
20
-9.03
40
2
50
0
51
90
0
LINE
8
0
10
76.5
20
-7.03
11
61.5
21
-7.03
0
ARC
8
0
10
61.5
20
-9.03
40
2
50
90
51
180
0
LINE
8
0
10
59.5
20
-9.03
11
59.5
21
-18.25
0
LINE
8
0
10
95.5
20
-13.83
11
95.5
21
-13.28
0
ARC
8
0
10
93.5
20
-13.28
40
2
50
0
51
90
0
LINE
8
0
10
93.5
20
-11.28
11
78.5
21
-11.28
0
LINE
8
0
10
112.5
20
-17.23
11
112.5
21
-15.83
0
ARC
8
0
10
110.5
20
-15.83
40
2
50
0
51
90
0
LINE
8
0
10
110.5
20
-13.83
11
95.5
21
-13.83
0
LINE
8
0
10
129.5
20
-85.23
11
129.5
21
-83.83
0
LINE
8
0
10
129.5
20
-30.83
11
129.5
21
-19.23
0
ARC
8
0
10
127.5
20
-19.23
40
2
50
0
51
90
0
LINE
8
0
10
127.5
20
-17.23
11
112.5
21
-17.23
0
LINE
8
0
10
129.5
20
-83.83
11
144.5
21
-83.83
0
ARC
8
0
10
144.5
20
-81.83
40
2
50
270
51
360
0
LINE
8
0
10
146.5
20
-81.83
11
146.5
21
-66.83
0
ARC
8
0
10
144.5
20
-66.83
40
2
50
0
51
30.0000001
0
ARC
8
0
10
144.5
20
-64.83
40
2
50
329.9999999
51
360
0
LINE
8
0
10
146.5
20
-64.83
11
146.5
21
-49.83
0
ARC
8
0
10
144.5
20
-49.83
40
2
50
0
51
30.0000001
0
ARC
8
0
10
144.5
20
-47.83
40
2
50
329.9999999
51
360
0
LINE
8
0
10
146.5
20
-47.83
11
146.5
21
-32.83
0
ARC
8
0
10
144.5
20
-32.83
40
2
50
0
51
90
0
LINE
8
0
10
144.5
20
-30.83
11
129.5
21
-30.83
0
LINE
8
0
10
129.5
20
-85.23
11
153.9384952
21
-102.4729286
0
LINE
8
0
10
153.9384952
20
-102.4729286
11
144.4384952
21
-118.9274112
0
LINE
8
0
10
144.4384952
20
-118.9274112
11
99.7442842
21
-101.0833123
0
LINE
8
0
10
99.7442842
20
-101.0833123
11
77.2132492
21
-93.8984955
0
LINE
8
0
10
31.55
20
-86.45
11
38.45
21
-86.45
0
LINE
8
0
10
38.45
20
-86.45
11
38.45
21
-79.55
0
LINE
8
0
10
38.45
20
-79.55
11
31.55
21
-79.55
0
LINE
8
0
10
31.55
20
-79.55
11
31.55
21
-86.45
0
LINE
8
0
10
31.55
20
-69.45
11
38.45
21
-69.45
0
LINE
8
0
10
38.45
20
-69.45
11
38.45
21
-62.55
0
LINE
8
0
10
38.45
20
-62.55
11
31.55
21
-62.55
0
LINE
8
0
10
31.55
20
-62.55
11
31.55
21
-69.45
0
LINE
8
0
10
31.55
20
-52.45
11
38.45
21
-52.45
0
LINE
8
0
10
38.45
20
-52.45
11
38.45
21
-45.55
0
LINE
8
0
10
38.45
20
-45.55
11
31.55
21
-45.55
0
LINE
8
0
10
31.55
20
-45.55
11
31.55
21
-52.45
0
LINE
8
0
10
31.55
20
-35.45
11
38.45
21
-35.45
0
LINE
8
0
10
38.45
20
-35.45
11
38.45
21
-28.55
0
LINE
8
0
10
38.45
20
-28.55
11
31.55
21
-28.55
0
LINE
8
0
10
31.55
20
-28.55
11
31.55
21
-35.45
0
LINE
8
0
10
48.55
20
-99.2
11
55.45
21
-99.2
0
LINE
8
0
10
55.45
20
-99.2
11
55.45
21
-92.3
0
LINE
8
0
10
55.45
20
-92.3
11
48.55
21
-92.3
0
LINE
8
0
10
48.55
20
-92.3
11
48.55
21
-99.2
0
LINE
8
0
10
48.55
20
-82.2
11
55.45
21
-82.2
0
LINE
8
0
10
55.45
20
-82.2
11
55.45
21
-75.3
0
LINE
8
0
10
55.45
20
-75.3
11
48.55
21
-75.3
0
LINE
8
0
10
48.55
20
-75.3
11
48.55
21
-82.2
0
LINE
8
0
10
48.55
20
-65.2
11
55.45
21
-65.2
0
LINE
8
0
10
55.45
20
-65.2
11
55.45
21
-58.3
0
LINE
8
0
10
55.45
20
-58.3
11
48.55
21
-58.3
0
LINE
8
0
10
48.55
20
-58.3
11
48.55
21
-65.2
0
LINE
8
0
10
48.55
20
-48.2
11
55.45
21
-48.2
0
LINE
8
0
10
55.45
20
-48.2
11
55.45
21
-41.3
0
LINE
8
0
10
55.45
20
-41.3
11
48.55
21
-41.3
0
LINE
8
0
10
48.55
20
-41.3
11
48.55
21
-48.2
0
LINE
8
0
10
48.55
20
-31.2
11
55.45
21
-31.2
0
LINE
8
0
10
55.45
20
-31.2
11
55.45
21
-24.3
0
LINE
8
0
10
55.45
20
-24.3
11
48.55
21
-24.3
0
LINE
8
0
10
48.55
20
-24.3
11
48.55
21
-31.2
0
LINE
8
0
10
65.55
20
-87.98
11
72.45
21
-87.98
0
LINE
8
0
10
72.45
20
-87.98
11
72.45
21
-81.08
0
LINE
8
0
10
72.45
20
-81.08
11
65.55
21
-81.08
0
LINE
8
0
10
65.55
20
-81.08
11
65.55
21
-87.98
0
LINE
8
0
10
65.55
20
-70.98
11
72.45
21
-70.98
0
LINE
8
0
10
72.45
20
-70.98
11
72.45
21
-64.08
0
LINE
8
0
10
72.45
20
-64.08
11
65.55
21
-64.08
0
LINE
8
0
10
65.55
20
-64.08
11
65.55
21
-70.98
0
LINE
8
0
10
65.55
20
-53.98
11
72.45
21
-53.98
0
LINE
8
0
10
72.45
20
-53.98
11
72.45
21
-47.08
0
LINE
8
0
10
72.45
20
-47.08
11
65.55
21
-47.08
0
LINE
8
0
10
65.55
20
-47.08
11
65.55
21
-53.98
0
LINE
8
0
10
65.55
20
-36.98
11
72.45
21
-36.98
0
LINE
8
0
10
72.45
20
-36.98
11
72.45
21
-30.08
0
LINE
8
0
10
72.45
20
-30.08
11
65.55
21
-30.08
0
LINE
8
0
10
65.55
20
-30.08
11
65.55
21
-36.98
0
LINE
8
0
10
65.55
20
-19.98
11
72.45
21
-19.98
0
LINE
8
0
10
72.45
20
-19.98
11
72.45
21
-13.08
0
LINE
8
0
10
72.45
20
-13.08
11
65.55
21
-13.08
0
LINE
8
0
10
65.55
20
-13.08
11
65.55
21
-19.98
0
LINE
8
0
10
82.55
20
-75.23
11
89.45
21
-75.23
0
LINE
8
0
10
89.45
20
-75.23
11
89.45
21
-68.33
0
LINE
8
0
10
89.45
20
-68.33
11
82.55
21
-68.33
0
LINE
8
0
10
82.55
20
-68.33
11
82.55
21
-75.23
0
LINE
8
0
10
82.55
20
-58.23
11
89.45
21
-58.23
0
LINE
8
0
10
89.45
20
-58.23
11
89.45
21
-51.33
0
LINE
8
0
10
89.45
20
-51.33
11
82.55
21
-51.33
0
LINE
8
0
10
82.55
20
-51.33
11
82.55
21
-58.23
0
LINE
8
0
10
82.55
20
-41.23
11
89.45
21
-41.23
0
LINE
8
0
10
89.45
20
-41.23
11
89.45
21
-34.33
0
LINE
8
0
10
89.45
20
-34.33
11
82.55
21
-34.33
0
LINE
8
0
10
82.55
20
-34.33
11
82.55
21
-41.23
0
LINE
8
0
10
82.55
20
-24.23
11
89.45
21
-24.23
0
LINE
8
0
10
89.45
20
-24.23
11
89.45
21
-17.33
0
LINE
8
0
10
89.45
20
-17.33
11
82.55
21
-17.33
0
LINE
8
0
10
82.55
20
-17.33
11
82.55
21
-24.23
0
LINE
8
0
10
99.55
20
-77.78
11
106.45
21
-77.78
0
LINE
8
0
10
106.45
20
-77.78
11
106.45
21
-70.88
0
LINE
8
0
10
106.45
20
-70.88
11
99.55
21
-70.88
0
LINE
8
0
10
99.55
20
-70.88
11
99.55
21
-77.78
0
LINE
8
0
10
99.55
20
-60.78
11
106.45
21
-60.78
0
LINE
8
0
10
106.45
20
-60.78
11
106.45
21
-53.88
0
LINE
8
0
10
106.45
20
-53.88
11
99.55
21
-53.88
0
LINE
8
0
10
99.55
20
-53.88
11
99.55
21
-60.78
0
LINE
8
0
10
99.55
20
-43.78
11
106.45
21
-43.78
0
LINE
8
0
10
106.45
20
-43.78
11
106.45
21
-36.88
0
LINE
8
0
10
106.45
20
-36.88
11
99.55
21
-36.88
0
LINE
8
0
10
99.55
20
-36.88
11
99.55
21
-43.78
0
LINE
8
0
10
99.55
20
-26.78
11
106.45
21
-26.78
0
LINE
8
0
10
106.45
20
-26.78
11
106.45
21
-19.88
0
LINE
8
0
10
106.45
20
-19.88
11
99.55
21
-19.88
0
LINE
8
0
10
99.55
20
-19.88
11
99.55
21
-26.78
0
LINE
8
0
10
116.55
20
-81.18
11
123.45
21
-81.18
0
LINE
8
0
10
123.45
20
-81.18
11
123.45
21
-74.28
0
LINE
8
0
10
123.45
20
-74.28
11
116.55
21
-74.28
0
LINE
8
0
10
116.55
20
-74.28
11
116.55
21
-81.18
0
LINE
8
0
10
116.55
20
-64.18
11
123.45
21
-64.18
0
LINE
8
0
10
123.45
20
-64.18
11
123.45
21
-57.28
0
LINE
8
0
10
123.45
20
-57.28
11
116.55
21
-57.28
0
LINE
8
0
10
116.55
20
-57.28
11
116.55
21
-64.18
0
LINE
8
0
10
116.55
20
-47.18
11
123.45
21
-47.18
0
LINE
8
0
10
123.45
20
-47.18
11
123.45
21
-40.28
0
LINE
8
0
10
123.45
20
-40.28
11
116.55
21
-40.28
0
LINE
8
0
10
116.55
20
-40.28
11
116.55
21
-47.18
0
LINE
8
0
10
116.55
20
-30.18
11
123.45
21
-30.18
0
LINE
8
0
10
123.45
20
-30.18
11
123.45
21
-23.28
0
LINE
8
0
10
123.45
20
-23.28
11
116.55
21
-23.28
0
LINE
8
0
10
116.55
20
-23.28
11
116.55
21
-30.18
0
LINE
8
0
10
133.55
20
-77.78
11
140.45
21
-77.78
0
LINE
8
0
10
140.45
20
-77.78
11
140.45
21
-70.88
0
LINE
8
0
10
140.45
20
-70.88
11
133.55
21
-70.88
0
LINE
8
0
10
133.55
20
-70.88
11
133.55
21
-77.78
0
LINE
8
0
10
133.55
20
-60.78
11
140.45
21
-60.78
0
LINE
8
0
10
140.45
20
-60.78
11
140.45
21
-53.88
0
LINE
8
0
10
140.45
20
-53.88
11
133.55
21
-53.88
0
LINE
8
0
10
133.55
20
-53.88
11
133.55
21
-60.78
0
LINE
8
0
10
133.55
20
-43.78
11
140.45
21
-43.78
0
LINE
8
0
10
140.45
20
-43.78
11
140.45
21
-36.88
0
LINE
8
0
10
140.45
20
-36.88
11
133.55
21
-36.88
0
LINE
8
0
10
133.55
20
-36.88
11
133.55
21
-43.78
0
ENDSEC
0
EOF