0
SECTION
2
HEADER
9
$INSUNITS
70
4
0
ENDSEC
0
SECTION
2
TABLES
0
TABLE
2
LTYPE
0
LTYPE
72
65
70
64
2
CONTINUOUS
3
______
73
0
40
0
0
ENDTAB
0
TABLE
2
LAYER
0
ENDTAB
0
ENDSEC
0
SECTION
2
ENTITIES
0
LINE
8
0
10
27.75
20
-143.25
11
41.75
21
-143.25
0
ARC
8
0
10
27.75
20
-125.75
40
3
50
155.3756814
51
180
0
LINE
8
0
10
24.75
20
-125.75
11
24.75
21
-140.25
0
ARC
8
0
10
27.75
20
-140.25
40
3
50
180
51
270
0
ARC
8
0
10
27.75
20
-108.75
40
3
50
155.3756814
51
180
0
LINE
8
0
10
24.75
20
-108.75
11
24.75
21
-123.25
0
ARC
8
0
10
27.75
20
-123.25
40
3
50
180
51
204.6243186
0
ARC
8
0
10
27.75
20
-91.75
40
3
50
155.3756814
51
180
0
LINE
8
0
10
24.75
20
-91.75
11
24.75
21
-106.25
0
ARC
8
0
10
27.75
20
-106.25
40
3
50
180
51
204.6243186
0
LINE
8
0
10
41.75
20
-71.75
11
27.75
21
-71.75
0
ARC
8
0
10
27.75
20
-74.75
40
3
50
90
51
180
0
LINE
8
0
10
24.75
20
-74.75
11
24.75
21
-89.25
0
ARC
8
0
10
27.75
20
-89.25
40
3
50
180
51
204.6243186
0
LINE
8
0
10
44.75
20
-156
11
59.25
21
-156
0
ARC
8
0
10
59.25
20
-153
40
3
50
270
51
360
0
LINE
8
0
10
62.25
20
-153
11
62.25
21
-144.78
0
LINE
8
0
10
41.75
20
-143.25
11
41.75
21
-153
0
ARC
8
0
10
44.75
20
-153
40
3
50
180
51
270
0
LINE
8
0
10
58.75
20
-67.5
11
44.75
21
-67.5
0
ARC
8
0
10
44.75
20
-70.5
40
3
50
90
51
180
0
LINE
8
0
10
41.75
20
-70.5
11
41.75
21
-71.75
0
LINE
8
0
10
62.25
20
-144.78
11
75.1614665
21
-144.78
0
LINE
8
0
10
79.25
20
-60.53
11
79.25
21
-59.28
0
ARC
8
0
10
76.25
20
-59.28
40
3
50
0
51
90
0
LINE
8
0
10
76.25
20
-56.28
11
61.75
21
-56.28
0
ARC
8
0
10
61.75
20
-59.28
40
3
50
90
51
180
0
LINE
8
0
10
58.75
20
-59.28
11
58.75
21
-67.5
0
ARC
8
0
10
93.25
20
-63.53
40
3
50
8.6269265
51
90
0
LINE
8
0
10
93.25
20
-60.53
11
79.25
21
-60.53
0
LINE
8
0
10
113.25
20
-66.48
11
113.25
21
-66.08
0
ARC
8
0
10
110.25
20
-66.08
40
3
50
0
51
90
0
LINE
8
0
10
110.25
20
-63.08
11
96.216058
21
-63.08
0
LINE
8
0
10
130.25
20
-80.08
11
130.25
21
-69.48
0
ARC
8
0
10
127.25
20
-69.48
40
3
50
0
51
90
0
LINE
8
0
10
127.25
20
-66.48
11
113.25
21
-66.48
0
LINE
8
0
10
130.3754203
20
-134.58
11
144.25
21
-134.58
0
ARC
8
0
10
144.25
20
-131.58
40
3
50
270
51
360
0
LINE
8
0
10
147.25
20
-131.58
11
147.25
21
-117.08
0
ARC
8
0
10
144.25
20
-117.08
40
3
50
0
51
24.6243186
0
ARC
8
0
10
144.25
20
-114.58
40
3
50
335.3756814
51
360
0
LINE
8
0
10
147.25
20
-114.58
11
147.25
21
-100.08
0
ARC
8
0
10
144.25
20
-100.08
40
3
50
0
51
24.6243186
0
ARC
8
0
10
144.25
20
-97.58
40
3
50
335.3756814
51
360
0
LINE
8
0
10
147.25
20
-97.58
11
147.25
21
-83.08
0
ARC
8
0
10
144.25
20
-83.08
40
3
50
0
51
90
0
LINE
8
0
10
144.25
20
-80.08
11
130.25
21
-80.08
0
LINE
8
0
10
99.86025
20
-153.5653302
11
100.3526538
21
-153.6521543
0
ARC
8
0
10
100.3811945
20
-150.6109069
40
3
50
234.2034541
51
260
0
LINE
8
0
10
143.4139762
20
-170.9019303
11
143.8469889
21
-171.1519303
0
ARC
8
0
10
145.3469889
20
-168.5538541
40
3
50
240
51
330
0
LINE
8
0
10
147.9450651
20
-170.0538541
11
155.1950651
21
-157.4964857
0
ARC
8
0
10
152.5969889
20
-155.9964857
40
3
50
330
51
60
0
LINE
8
0
10
154.0969889
20
-153.3984095
11
153.6639762
21
-153.1484095
0
LINE
8
0
10
130.3754203
20
-134.58
11
153.6639762
21
-153.1484095
0
LINE
8
0
10
143.4139762
20
-170.9019303
11
100.3526538
21
-153.6521543
0
LINE
8
0
10
98.6264682
20
-153.0442041
11
75.1614665
21
-144.78
0
ENDSEC
0
EOF