0
SECTION
2
HEADER
9
$INSUNITS
70
4
0
ENDSEC
0
SECTION
2
TABLES
0
TABLE
2
LTYPE
0
LTYPE
72
65
70
64
2
CONTINUOUS
3
______
73
0
40
0
0
ENDTAB
0
TABLE
2
LAYER
0
ENDTAB
0
ENDSEC
0
SECTION
2
ENTITIES
0
LINE
8
0
10
27.75
20
-143.25
11
41.75
21
-143.25
0
ARC
8
0
10
27.75
20
-125.75
40
3
50
155.3756814
51
180
0
LINE
8
0
10
24.75
20
-125.75
11
24.75
21
-140.25
0
ARC
8
0
10
27.75
20
-140.25
40
3
50
180
51
270
0
ARC
8
0
10
27.75
20
-108.75
40
3
50
155.3756814
51
180
0
LINE
8
0
10
24.75
20
-108.75
11
24.75
21
-123.25
0
ARC
8
0
10
27.75
20
-123.25
40
3
50
180
51
204.6243186
0
ARC
8
0
10
27.75
20
-91.75
40
3
50
155.3756814
51
180
0
LINE
8
0
10
24.75
20
-91.75
11
24.75
21
-106.25
0
ARC
8
0
10
27.75
20
-106.25
40
3
50
180
51
204.6243186
0
LINE
8
0
10
41.75
20
-71.75
11
27.75
21
-71.75
0
ARC
8
0
10
27.75
20
-74.75
40
3
50
90
51
180
0
LINE
8
0
10
24.75
20
-74.75
11
24.75
21
-89.25
0
ARC
8
0
10
27.75
20
-89.25
40
3
50
180
51
204.6243186
0
LINE
8
0
10
44.75
20
-156
11
59.25
21
-156
0
ARC
8
0
10
59.25
20
-153
40
3
50
270
51
360
0
LINE
8
0
10
62.25
20
-153
11
62.25
21
-144.78
0
LINE
8
0
10
41.75
20
-143.25
11
41.75
21
-153
0
ARC
8
0
10
44.75
20
-153
40
3
50
180
51
270
0
LINE
8
0
10
58.75
20
-67.5
11
44.75
21
-67.5
0
ARC
8
0
10
44.75
20
-70.5
40
3
50
90
51
180
0
LINE
8
0
10
41.75
20
-70.5
11
41.75
21
-71.75
0
LINE
8
0
10
62.25
20
-144.78
11
75.1614665
21
-144.78
0
LINE
8
0
10
79.25
20
-60.53
11
79.25
21
-59.28
0
ARC
8
0
10
76.25
20
-59.28
40
3
50
0
51
90
0
LINE
8
0
10
76.25
20
-56.28
11
61.75
21
-56.28
0
ARC
8
0
10
61.75
20
-59.28
40
3
50
90
51
180
0
LINE
8
0
10
58.75
20
-59.28
11
58.75
21
-67.5
0
ARC
8
0
10
93.25
20
-63.53
40
3
50
8.6269265
51
90
0
LINE
8
0
10
93.25
20
-60.53
11
79.25
21
-60.53
0
LINE
8
0
10
113.25
20
-66.48
11
113.25
21
-66.08
0
ARC
8
0
10
110.25
20
-66.08
40
3
50
0
51
90
0
LINE
8
0
10
110.25
20
-63.08
11
96.216058
21
-63.08
0
LINE
8
0
10
130.25
20
-80.08
11
130.25
21
-69.48
0
ARC
8
0
10
127.25
20
-69.48
40
3
50
0
51
90
0
LINE
8
0
10
127.25
20
-66.48
11
113.25
21
-66.48
0
LINE
8
0
10
130.3754203
20
-134.58
11
144.25
21
-134.58
0
ARC
8
0
10
144.25
20
-131.58
40
3
50
270
51
360
0
LINE
8
0
10
147.25
20
-131.58
11
147.25
21
-117.08
0
ARC
8
0
10
144.25
20
-117.08
40
3
50
0
51
24.6243186
0
ARC
8
0
10
144.25
20
-114.58
40
3
50
335.3756814
51
360
0
LINE
8
0
10
147.25
20
-114.58
11
147.25
21
-100.08
0
ARC
8
0
10
144.25
20
-100.08
40
3
50
0
51
24.6243186
0
ARC
8
0
10
144.25
20
-97.58
40
3
50
335.3756814
51
360
0
LINE
8
0
10
147.25
20
-97.58
11
147.25
21
-83.08
0
ARC
8
0
10
144.25
20
-83.08
40
3
50
0
51
90
0
LINE
8
0
10
144.25
20
-80.08
11
130.25
21
-80.08
0
LINE
8
0
10
99.86025
20
-153.5653302
11
100.3526538
21
-153.6521543
0
ARC
8
0
10
100.3811945
20
-150.6109069
40
3
50
234.2034541
51
260
0
LINE
8
0
10
143.4139762
20
-170.9019303
11
143.8469889
21
-171.1519303
0
ARC
8
0
10
145.3469889
20
-168.5538541
40
3
50
240
51
330
0
LINE
8
0
10
147.9450651
20
-170.0538541
11
155.1950651
21
-157.4964857
0
ARC
8
0
10
152.5969889
20
-155.9964857
40
3
50
330
51
60
0
LINE
8
0
10
154.0969889
20
-153.3984095
11
153.6639762
21
-153.1484095
0
LINE
8
0
10
130.3754203
20
-134.58
11
153.6639762
21
-153.1484095
0
LINE
8
0
10
143.4139762
20
-170.9019303
11
100.3526538
21
-153.6521543
0
LINE
8
0
10
98.6264682
20
-153.0442041
11
75.1614665
21
-144.78
0
LINE
8
0
10
31.55
20
-136.45
11
38.45
21
-136.45
0
LINE
8
0
10
38.45
20
-136.45
11
38.45
21
-129.55
0
LINE
8
0
10
38.45
20
-129.55
11
31.55
21
-129.55
0
LINE
8
0
10
31.55
20
-129.55
11
31.55
21
-136.45
0
LINE
8
0
10
31.55
20
-119.45
11
38.45
21
-119.45
0
LINE
8
0
10
38.45
20
-119.45
11
38.45
21
-112.55
0
LINE
8
0
10
38.45
20
-112.55
11
31.55
21
-112.55
0
LINE
8
0
10
31.55
20
-112.55
11
31.55
21
-119.45
0
LINE
8
0
10
31.55
20
-102.45
11
38.45
21
-102.45
0
LINE
8
0
10
38.45
20
-102.45
11
38.45
21
-95.55
0
LINE
8
0
10
38.45
20
-95.55
11
31.55
21
-95.55
0
LINE
8
0
10
31.55
20
-95.55
11
31.55
21
-102.45
0
LINE
8
0
10
31.55
20
-85.45
11
38.45
21
-85.45
0
LINE
8
0
10
38.45
20
-85.45
11
38.45
21
-78.55
0
LINE
8
0
10
38.45
20
-78.55
11
31.55
21
-78.55
0
LINE
8
0
10
31.55
20
-78.55
11
31.55
21
-85.45
0
LINE
8
0
10
48.55
20
-149.2
11
55.45
21
-149.2
0
LINE
8
0
10
55.45
20
-149.2
11
55.45
21
-142.3
0
LINE
8
0
10
55.45
20
-142.3
11
48.55
21
-142.3
0
LINE
8
0
10
48.55
20
-142.3
11
48.55
21
-149.2
0
LINE
8
0
10
48.55
20
-132.2
11
55.45
21
-132.2
0
LINE
8
0
10
55.45
20
-132.2
11
55.45
21
-125.3
0
LINE
8
0
10
55.45
20
-125.3
11
48.55
21
-125.3
0
LINE
8
0
10
48.55
20
-125.3
11
48.55
21
-132.2
0
LINE
8
0
10
48.55
20
-115.2
11
55.45
21
-115.2
0
LINE
8
0
10
55.45
20
-115.2
11
55.45
21
-108.3
0
LINE
8
0
10
55.45
20
-108.3
11
48.55
21
-108.3
0
LINE
8
0
10
48.55
20
-108.3
11
48.55
21
-115.2
0
LINE
8
0
10
48.55
20
-98.2
11
55.45
21
-98.2
0
LINE
8
0
10
55.45
20
-98.2
11
55.45
21
-91.3
0
LINE
8
0
10
55.45
20
-91.3
11
48.55
21
-91.3
0
LINE
8
0
10
48.55
20
-91.3
11
48.55
21
-98.2
0
LINE
8
0
10
48.55
20
-81.2
11
55.45
21
-81.2
0
LINE
8
0
10
55.45
20
-81.2
11
55.45
21
-74.3
0
LINE
8
0
10
55.45
20
-74.3
11
48.55
21
-74.3
0
LINE
8
0
10
48.55
20
-74.3
11
48.55
21
-81.2
0
LINE
8
0
10
65.55
20
-137.98
11
72.45
21
-137.98
0
LINE
8
0
10
72.45
20
-137.98
11
72.45
21
-131.08
0
LINE
8
0
10
72.45
20
-131.08
11
65.55
21
-131.08
0
LINE
8
0
10
65.55
20
-131.08
11
65.55
21
-137.98
0
LINE
8
0
10
65.55
20
-120.98
11
72.45
21
-120.98
0
LINE
8
0
10
72.45
20
-120.98
11
72.45
21
-114.08
0
LINE
8
0
10
72.45
20
-114.08
11
65.55
21
-114.08
0
LINE
8
0
10
65.55
20
-114.08
11
65.55
21
-120.98
0
LINE
8
0
10
65.55
20
-103.98
11
72.45
21
-103.98
0
LINE
8
0
10
72.45
20
-103.98
11
72.45
21
-97.08
0
LINE
8
0
10
72.45
20
-97.08
11
65.55
21
-97.08
0
LINE
8
0
10
65.55
20
-97.08
11
65.55
21
-103.98
0
LINE
8
0
10
65.55
20
-86.98
11
72.45
21
-86.98
0
LINE
8
0
10
72.45
20
-86.98
11
72.45
21
-80.08
0
LINE
8
0
10
72.45
20
-80.08
11
65.55
21
-80.08
0
LINE
8
0
10
65.55
20
-80.08
11
65.55
21
-86.98
0
LINE
8
0
10
65.55
20
-69.98
11
72.45
21
-69.98
0
LINE
8
0
10
72.45
20
-69.98
11
72.45
21
-63.08
0
LINE
8
0
10
72.45
20
-63.08
11
65.55
21
-63.08
0
LINE
8
0
10
65.55
20
-63.08
11
65.55
21
-69.98
0
LINE
8
0
10
82.55
20
-125.23
11
89.45
21
-125.23
0
LINE
8
0
10
89.45
20
-125.23
11
89.45
21
-118.33
0
LINE
8
0
10
89.45
20
-118.33
11
82.55
21
-118.33
0
LINE
8
0
10
82.55
20
-118.33
11
82.55
21
-125.23
0
LINE
8
0
10
82.55
20
-108.23
11
89.45
21
-108.23
0
LINE
8
0
10
89.45
20
-108.23
11
89.45
21
-101.33
0
LINE
8
0
10
89.45
20
-101.33
11
82.55
21
-101.33
0
LINE
8
0
10
82.55
20
-101.33
11
82.55
21
-108.23
0
LINE
8
0
10
82.55
20
-91.23
11
89.45
21
-91.23
0
LINE
8
0
10
89.45
20
-91.23
11
89.45
21
-84.33
0
LINE
8
0
10
89.45
20
-84.33
11
82.55
21
-84.33
0
LINE
8
0
10
82.55
20
-84.33
11
82.55
21
-91.23
0
LINE
8
0
10
82.55
20
-74.23
11
89.45
21
-74.23
0
LINE
8
0
10
89.45
20
-74.23
11
89.45
21
-67.33
0
LINE
8
0
10
89.45
20
-67.33
11
82.55
21
-67.33
0
LINE
8
0
10
82.55
20
-67.33
11
82.55
21
-74.23
0
LINE
8
0
10
99.55
20
-127.78
11
106.45
21
-127.78
0
LINE
8
0
10
106.45
20
-127.78
11
106.45
21
-120.88
0
LINE
8
0
10
106.45
20
-120.88
11
99.55
21
-120.88
0
LINE
8
0
10
99.55
20
-120.88
11
99.55
21
-127.78
0
LINE
8
0
10
99.55
20
-110.78
11
106.45
21
-110.78
0
LINE
8
0
10
106.45
20
-110.78
11
106.45
21
-103.88
0
LINE
8
0
10
106.45
20
-103.88
11
99.55
21
-103.88
0
LINE
8
0
10
99.55
20
-103.88
11
99.55
21
-110.78
0
LINE
8
0
10
99.55
20
-93.78
11
106.45
21
-93.78
0
LINE
8
0
10
106.45
20
-93.78
11
106.45
21
-86.88
0
LINE
8
0
10
106.45
20
-86.88
11
99.55
21
-86.88
0
LINE
8
0
10
99.55
20
-86.88
11
99.55
21
-93.78
0
LINE
8
0
10
99.55
20
-76.78
11
106.45
21
-76.78
0
LINE
8
0
10
106.45
20
-76.78
11
106.45
21
-69.88
0
LINE
8
0
10
106.45
20
-69.88
11
99.55
21
-69.88
0
LINE
8
0
10
99.55
20
-69.88
11
99.55
21
-76.78
0
LINE
8
0
10
116.55
20
-131.18
11
123.45
21
-131.18
0
LINE
8
0
10
123.45
20
-131.18
11
123.45
21
-124.28
0
LINE
8
0
10
123.45
20
-124.28
11
116.55
21
-124.28
0
LINE
8
0
10
116.55
20
-124.28
11
116.55
21
-131.18
0
LINE
8
0
10
116.55
20
-114.18
11
123.45
21
-114.18
0
LINE
8
0
10
123.45
20
-114.18
11
123.45
21
-107.28
0
LINE
8
0
10
123.45
20
-107.28
11
116.55
21
-107.28
0
LINE
8
0
10
116.55
20
-107.28
11
116.55
21
-114.18
0
LINE
8
0
10
116.55
20
-97.18
11
123.45
21
-97.18
0
LINE
8
0
10
123.45
20
-97.18
11
123.45
21
-90.28
0
LINE
8
0
10
123.45
20
-90.28
11
116.55
21
-90.28
0
LINE
8
0
10
116.55
20
-90.28
11
116.55
21
-97.18
0
LINE
8
0
10
116.55
20
-80.18
11
123.45
21
-80.18
0
LINE
8
0
10
123.45
20
-80.18
11
123.45
21
-73.28
0
LINE
8
0
10
123.45
20
-73.28
11
116.55
21
-73.28
0
LINE
8
0
10
116.55
20
-73.28
11
116.55
21
-80.18
0
LINE
8
0
10
133.55
20
-127.78
11
140.45
21
-127.78
0
LINE
8
0
10
140.45
20
-127.78
11
140.45
21
-120.88
0
LINE
8
0
10
140.45
20
-120.88
11
133.55
21
-120.88
0
LINE
8
0
10
133.55
20
-120.88
11
133.55
21
-127.78
0
LINE
8
0
10
133.55
20
-110.78
11
140.45
21
-110.78
0
LINE
8
0
10
140.45
20
-110.78
11
140.45
21
-103.88
0
LINE
8
0
10
140.45
20
-103.88
11
133.55
21
-103.88
0
LINE
8
0
10
133.55
20
-103.88
11
133.55
21
-110.78
0
LINE
8
0
10
133.55
20
-93.78
11
140.45
21
-93.78
0
LINE
8
0
10
140.45
20
-93.78
11
140.45
21
-86.88
0
LINE
8
0
10
140.45
20
-86.88
11
133.55
21
-86.88
0
LINE
8
0
10
133.55
20
-86.88
11
133.55
21
-93.78
0
LINE
8
0
10
104.783327
20
-147.5285005
11
111.5785005
21
-148.726673
0
LINE
8
0
10
111.5785005
20
-148.726673
11
112.776673
21
-141.9314995
0
LINE
8
0
10
112.776673
20
-141.9314995
11
105.9814995
21
-140.733327
0
LINE
8
0
10
105.9814995
20
-140.733327
11
104.783327
21
-147.5285005
0
LINE
8
0
10
122.3859329
20
-152.1342433
11
128.6394567
21
-155.0503093
0
LINE
8
0
10
128.6394567
20
-155.0503093
11
131.5555227
21
-148.7967855
0
LINE
8
0
10
131.5555227
20
-148.7967855
11
125.3019989
21
-145.8807195
0
LINE
8
0
10
125.3019989
20
-145.8807195
11
122.3859329
21
-152.1342433
0
LINE
8
0
10
137.9805171
20
-159.9129575
11
143.9560923
21
-163.3629575
0
LINE
8
0
10
143.9560923
20
-163.3629575
11
147.4060923
21
-157.3873823
0
LINE
8
0
10
147.4060923
20
-157.3873823
11
141.4305171
21
-153.9373823
0
LINE
8
0
10
141.4305171
20
-153.9373823
11
137.9805171
21
-159.9129575
0
ENDSEC
0
EOF