0
SECTION
2
HEADER
9
$INSUNITS
70
4
0
ENDSEC
0
SECTION
2
TABLES
0
TABLE
2
LTYPE
0
LTYPE
72
65
70
64
2
CONTINUOUS
3
______
73
0
40
0
0
ENDTAB
0
TABLE
2
LAYER
0
ENDTAB
0
ENDSEC
0
SECTION
2
ENTITIES
0
LINE
8
0
10
27.75
20
-143.25
11
41.75
21
-143.25
0
ARC
8
0
10
27.75
20
-125.75
40
3
50
155.3756814
51
180
0
LINE
8
0
10
24.75
20
-125.75
11
24.75
21
-140.25
0
ARC
8
0
10
27.75
20
-140.25
40
3
50
180
51
270
0
ARC
8
0
10
27.75
20
-108.75
40
3
50
155.3756814
51
180
0
LINE
8
0
10
24.75
20
-108.75
11
24.75
21
-123.25
0
ARC
8
0
10
27.75
20
-123.25
40
3
50
180
51
204.6243186
0
ARC
8
0
10
27.75
20
-91.75
40
3
50
155.3756814
51
180
0
LINE
8
0
10
24.75
20
-91.75
11
24.75
21
-106.25
0
ARC
8
0
10
27.75
20
-106.25
40
3
50
180
51
204.6243186
0
LINE
8
0
10
41.75
20
-71.75
11
27.75
21
-71.75
0
ARC
8
0
10
27.75
20
-74.75
40
3
50
90
51
180
0
LINE
8
0
10
24.75
20
-74.75
11
24.75
21
-89.25
0
ARC
8
0
10
27.75
20
-89.25
40
3
50
180
51
204.6243186
0
LINE
8
0
10
44.75
20
-156
11
59.25
21
-156
0
ARC
8
0
10
59.25
20
-153
40
3
50
270
51
360
0
LINE
8
0
10
62.25
20
-153
11
62.25
21
-144.78
0
LINE
8
0
10
41.75
20
-143.25
11
41.75
21
-153
0
ARC
8
0
10
44.75
20
-153
40
3
50
180
51
270
0
LINE
8
0
10
58.75
20
-67.5
11
44.75
21
-67.5
0
ARC
8
0
10
44.75
20
-70.5
40
3
50
90
51
180
0
LINE
8
0
10
41.75
20
-70.5
11
41.75
21
-71.75
0
LINE
8
0
10
62.25
20
-144.78
11
76.25
21
-144.78
0
ARC
8
0
10
76.25
20
-141.78
40
3
50
270
51
360
0
LINE
8
0
10
79.25
20
-141.78
11
79.25
21
-132.03
0
LINE
8
0
10
79.25
20
-60.53
11
79.25
21
-59.28
0
ARC
8
0
10
76.25
20
-59.28
40
3
50
0
51
90
0
LINE
8
0
10
76.25
20
-56.28
11
61.75
21
-56.28
0
ARC
8
0
10
61.75
20
-59.28
40
3
50
90
51
180
0
LINE
8
0
10
58.75
20
-59.28
11
58.75
21
-67.5
0
LINE
8
0
10
79.25
20
-132.03
11
92.783942
21
-132.03
0
ARC
8
0
10
93.25
20
-63.53
40
3
50
8.6269265
51
90
0
LINE
8
0
10
93.25
20
-60.53
11
79.25
21
-60.53
0
LINE
8
0
10
95.75
20
-134.58
11
100.4632528
21
-134.58
0
ARC
8
0
10
95.75
20
-131.58
40
3
50
188.6269265
51
270
0
LINE
8
0
10
113.25
20
-66.48
11
113.25
21
-66.08
0
ARC
8
0
10
110.25
20
-66.08
40
3
50
0
51
90
0
LINE
8
0
10
110.25
20
-63.08
11
96.216058
21
-63.08
0
LINE
8
0
10
120.0501601
20
-137.98
11
122.529668
21
-137.98
0
LINE
8
0
10
124.3982894
20
-137.98
11
127.25
21
-137.98
0
ARC
8
0
10
127.25
20
-134.98
40
3
50
270
51
360
0
LINE
8
0
10
130.25
20
-134.98
11
130.25
21
-134.58
0
LINE
8
0
10
130.25
20
-80.08
11
130.25
21
-69.48
0
ARC
8
0
10
127.25
20
-69.48
40
3
50
0
51
90
0
LINE
8
0
10
127.25
20
-66.48
11
113.25
21
-66.48
0
LINE
8
0
10
130.25
20
-134.58
11
144.25
21
-134.58
0
ARC
8
0
10
144.25
20
-131.58
40
3
50
270
51
360
0
LINE
8
0
10
147.25
20
-131.58
11
147.25
21
-117.08
0
ARC
8
0
10
144.25
20
-117.08
40
3
50
0
51
24.6243186
0
ARC
8
0
10
144.25
20
-114.58
40
3
50
335.3756814
51
360
0
LINE
8
0
10
147.25
20
-114.58
11
147.25
21
-100.08
0
ARC
8
0
10
144.25
20
-100.08
40
3
50
0
51
24.6243186
0
ARC
8
0
10
144.25
20
-97.58
40
3
50
335.3756814
51
360
0
LINE
8
0
10
147.25
20
-97.58
11
147.25
21
-83.08
0
ARC
8
0
10
144.25
20
-83.08
40
3
50
0
51
90
0
LINE
8
0
10
144.25
20
-80.08
11
130.25
21
-80.08
0
LINE
8
0
10
99.86025
20
-153.5653302
11
114.1399624
21
-156.0832288
0
ARC
8
0
10
114.6609069
20
-153.1288055
40
3
50
260
51
280.3713557
0
LINE
8
0
10
119.7065005
20
-141.7901339
11
120.1332288
21
-139.3700376
0
ARC
8
0
10
117.1788055
20
-138.8490931
40
3
50
350
51
376.8398586
0
ARC
8
0
10
102.8990931
20
-136.3311945
40
3
50
144.2865736
51
170
0
LINE
8
0
10
99.9446698
20
-135.81025
11
97.4267712
21
-150.0899624
0
ARC
8
0
10
100.3811945
20
-150.6109069
40
3
50
170
51
260
0
LINE
8
0
10
116.0681592
20
-156.6911868
11
129.2096221
21
-162.8191516
0
ARC
8
0
10
130.4774769
20
-160.1002283
40
3
50
245
51
268.2499721
0
ARC
8
0
10
136.6054417
20
-146.9587653
40
3
50
382.3139366
51
65
0
LINE
8
0
10
137.8732964
20
-144.239842
11
124.7318335
21
-138.1118772
0
ARC
8
0
10
123.4639787
20
-140.8308005
40
3
50
65
51
71.8541539
0
ARC
8
0
10
123.4639787
20
-140.8308005
40
3
50
108.1458461
51
155
0
LINE
8
0
10
120.7450554
20
-139.5629458
11
119.7065005
21
-141.7901339
0
ARC
8
0
10
117.3360139
20
-153.9722635
40
3
50
224.6286439
51
245
0
LINE
8
0
10
131.2896205
20
-163.9019303
11
143.8469889
21
-171.1519303
0
ARC
8
0
10
145.3469889
20
-168.5538541
40
3
50
240
51
330
0
LINE
8
0
10
147.9450651
20
-170.0538541
11
155.1950651
21
-157.4964857
0
ARC
8
0
10
152.5969889
20
-155.9964857
40
3
50
330
51
60
0
LINE
8
0
10
154.0969889
20
-153.3984095
11
141.5396205
21
-146.1484095
0
ARC
8
0
10
140.0396205
20
-148.7464857
40
3
50
60
51
102.6860609
0
ARC
8
0
10
132.7896205
20
-161.3038541
40
3
50
216.7500264
51
240
0
ENDSEC
0
EOF