0
SECTION
2
HEADER
9
$INSUNITS
70
4
0
ENDSEC
0
SECTION
2
TABLES
0
TABLE
2
LTYPE
0
LTYPE
72
65
70
64
2
CONTINUOUS
3
______
73
0
40
0
0
ENDTAB
0
TABLE
2
LAYER
0
ENDTAB
0
ENDSEC
0
SECTION
2
ENTITIES
0
LINE
8
0
10
27.5
20
-92.5
11
42.5
21
-92.5
0
ARC
8
0
10
27.5
20
-75.5
40
2
50
149.9999999
51
180
0
LINE
8
0
10
25.5
20
-75.5
11
25.5
21
-90.5
0
ARC
8
0
10
27.5
20
-90.5
40
2
50
180
51
270
0
ARC
8
0
10
27.5
20
-58.5
40
2
50
149.9999999
51
180
0
LINE
8
0
10
25.5
20
-58.5
11
25.5
21
-73.5
0
ARC
8
0
10
27.5
20
-73.5
40
2
50
180
51
210.0000001
0
ARC
8
0
10
27.5
20
-41.5
40
2
50
149.9999999
51
180
0
LINE
8
0
10
25.5
20
-41.5
11
25.5
21
-56.5
0
ARC
8
0
10
27.5
20
-56.5
40
2
50
180
51
210.0000001
0
LINE
8
0
10
42.5
20
-22.5
11
27.5
21
-22.5
0
ARC
8
0
10
27.5
20
-24.5
40
2
50
90
51
180
0
LINE
8
0
10
25.5
20
-24.5
11
25.5
21
-39.5
0
ARC
8
0
10
27.5
20
-39.5
40
2
50
180
51
210.0000001
0
LINE
8
0
10
44.5
20
-105.25
11
59.5
21
-105.25
0
ARC
8
0
10
59.5
20
-103.25
40
2
50
270
51
360
0
LINE
8
0
10
61.5
20
-103.25
11
61.5
21
-94.03
0
LINE
8
0
10
42.5
20
-92.5
11
42.5
21
-103.25
0
ARC
8
0
10
44.5
20
-103.25
40
2
50
180
51
270
0
LINE
8
0
10
59.5
20
-18.25
11
44.5
21
-18.25
0
ARC
8
0
10
44.5
20
-20.25
40
2
50
90
51
180
0
LINE
8
0
10
42.5
20
-20.25
11
42.5
21
-22.5
0
LINE
8
0
10
61.5
20
-94.03
11
76.5
21
-94.03
0
ARC
8
0
10
76.5
20
-92.03
40
2
50
270
51
290.8930457
0
LINE
8
0
10
78.5
20
-11.28
11
78.5
21
-9.03
0
ARC
8
0
10
76.5
20
-9.03
40
2
50
0
51
90
0
LINE
8
0
10
76.5
20
-7.03
11
61.5
21
-7.03
0
ARC
8
0
10
61.5
20
-9.03
40
2
50
90
51
180
0
LINE
8
0
10
59.5
20
-9.03
11
59.5
21
-18.25
0
LINE
8
0
10
95.5
20
-13.83
11
95.5
21
-13.28
0
ARC
8
0
10
93.5
20
-13.28
40
2
50
0
51
90
0
LINE
8
0
10
93.5
20
-11.28
11
78.5
21
-11.28
0
LINE
8
0
10
112.5
20
-17.23
11
112.5
21
-15.83
0
ARC
8
0
10
110.5
20
-15.83
40
2
50
0
51
90
0
LINE
8
0
10
110.5
20
-13.83
11
95.5
21
-13.83
0
LINE
8
0
10
129.5
20
-85.23
11
129.5
21
-83.83
0
LINE
8
0
10
129.5
20
-30.83
11
129.5
21
-19.23
0
ARC
8
0
10
127.5
20
-19.23
40
2
50
0
51
90
0
LINE
8
0
10
127.5
20
-17.23
11
112.5
21
-17.23
0
LINE
8
0
10
129.5
20
-83.83
11
144.5
21
-83.83
0
ARC
8
0
10
144.5
20
-81.83
40
2
50
270
51
360
0
LINE
8
0
10
146.5
20
-81.83
11
146.5
21
-66.83
0
ARC
8
0
10
144.5
20
-66.83
40
2
50
0
51
30.0000001
0
ARC
8
0
10
144.5
20
-64.83
40
2
50
329.9999999
51
360
0
LINE
8
0
10
146.5
20
-64.83
11
146.5
21
-49.83
0
ARC
8
0
10
144.5
20
-49.83
40
2
50
0
51
30.0000001
0
ARC
8
0
10
144.5
20
-47.83
40
2
50
329.9999999
51
360
0
LINE
8
0
10
146.5
20
-47.83
11
146.5
21
-32.83
0
ARC
8
0
10
144.5
20
-32.83
40
2
50
0
51
90
0
LINE
8
0
10
144.5
20
-30.83
11
129.5
21
-30.83
0
LINE
8
0
10
129.5
20
-85.23
11
153.9384952
21
-102.4729286
0
LINE
8
0
10
153.9384952
20
-102.4729286
11
144.4384952
21
-118.9274112
0
LINE
8
0
10
144.4384952
20
-118.9274112
11
99.7442842
21
-101.0833123
0
LINE
8
0
10
99.7442842
20
-101.0833123
11
77.2132492
21
-93.8984955
0
ENDSEC
0
EOF