0
SECTION
2
HEADER
9
$INSUNITS
70
4
0
ENDSEC
0
SECTION
2
TABLES
0
TABLE
2
LTYPE
0
LTYPE
72
65
70
64
2
CONTINUOUS
3
______
73
0
40
0
0
ENDTAB
0
TABLE
2
LAYER
0
ENDTAB
0
ENDSEC
0
SECTION
2
ENTITIES
0
LINE
8
0
10
21.75
20
-107.9651278
11
21.75
21
28.0325986
0
LINE
8
0
10
22.2163411
20
28.5314644
11
149.7163411
21
37.1339936
0
LINE
8
0
10
150.25
20
36.6351278
11
150.25
21
-99.3625986
0
LINE
8
0
10
104.3602264
20
-102.9262205
11
22.2836589
21
-108.4639936
0
ARC
8
0
10
22.25
20
28.0325986
40
0.5
50
93.8599449
51
180
0
ARC
8
0
10
149.75
20
36.6351278
40
0.5
50
0
51
93.8599449
0
ARC
8
0
10
149.75
20
-99.3625986
40
0.5
50
310.1143202
51
0
0
ARC
8
0
10
22.25
20
-107.9651278
40
0.5
50
180
51
273.8599449
0
LINE
8
0
10
357.5
20
-92.5
11
372.5
21
-92.5
0
ARC
8
0
10
372.5
20
-90.5
40
2
50
270
51
360
0
LINE
8
0
10
374.5
20
-90.5
11
374.5
21
-75.5
0
ARC
8
0
10
372.5
20
-75.5
40
2
50
0
51
30.0000001
0
ARC
8
0
10
372.5
20
-73.5
40
2
50
329.9999999
51
360
0
LINE
8
0
10
374.5
20
-73.5
11
374.5
21
-58.5
0
ARC
8
0
10
372.5
20
-58.5
40
2
50
0
51
30.0000001
0
ARC
8
0
10
372.5
20
-56.5
40
2
50
329.9999999
51
360
0
LINE
8
0
10
374.5
20
-56.5
11
374.5
21
-41.5
0
ARC
8
0
10
372.5
20
-41.5
40
2
50
0
51
30.0000001
0
ARC
8
0
10
372.5
20
-39.5
40
2
50
329.9999999
51
360
0
LINE
8
0
10
374.5
20
-39.5
11
374.5
21
-24.5
0
ARC
8
0
10
372.5
20
-24.5
40
2
50
0
51
90
0
LINE
8
0
10
372.5
20
-22.5
11
357.5
21
-22.5
0
LINE
8
0
10
340.5
20
-105.25
11
355.5
21
-105.25
0
ARC
8
0
10
355.5
20
-103.25
40
2
50
270
51
360
0
LINE
8
0
10
357.5
20
-103.25
11
357.5
21
-92.5
0
LINE
8
0
10
338.5
20
-94.03
11
338.5
21
-103.25
0
ARC
8
0
10
340.5
20
-103.25
40
2
50
180
51
270
0
LINE
8
0
10
357.5
20
-22.5
11
357.5
21
-20.25
0
ARC
8
0
10
355.5
20
-20.25
40
2
50
0
51
90
0
LINE
8
0
10
355.5
20
-18.25
11
340.5
21
-18.25
0
LINE
8
0
10
323.5
20
-94.03
11
338.5
21
-94.03
0
LINE
8
0
10
321.5
20
-81.28
11
321.5
21
-92.03
0
ARC
8
0
10
323.5
20
-92.03
40
2
50
180
51
270
0
LINE
8
0
10
340.5
20
-18.25
11
340.5
21
-9.03
0
ARC
8
0
10
338.5
20
-9.03
40
2
50
0
51
90
0
LINE
8
0
10
338.5
20
-7.03
11
323.5
21
-7.03
0
ARC
8
0
10
323.5
20
-9.03
40
2
50
90
51
180
0
LINE
8
0
10
321.5
20
-9.03
11
321.5
21
-11.28
0
LINE
8
0
10
306.5
20
-81.28
11
321.5
21
-81.28
0
LINE
8
0
10
321.5
20
-11.28
11
306.5
21
-11.28
0
ARC
8
0
10
306.5
20
-13.28
40
2
50
90
51
180
0
LINE
8
0
10
304.5
20
-13.28
11
304.5
21
-13.83
0
LINE
8
0
10
299.2371614
20
-83.83
11
304.5
21
-83.83
0
ARC
8
0
10
304.5
20
-81.83
40
2
50
270
51
360
0
LINE
8
0
10
306.5
20
-81.83
11
306.5
21
-81.28
0
LINE
8
0
10
304.5
20
-13.83
11
289.5
21
-13.83
0
ARC
8
0
10
289.5
20
-15.83
40
2
50
90
51
180
0
LINE
8
0
10
287.5
20
-15.83
11
287.5
21
-17.23
0
LINE
8
0
10
272.5
20
-87.23
11
275.2883477
21
-87.23
0
LINE
8
0
10
277.8977463
20
-87.23
11
280.5518037
21
-87.23
0
LINE
8
0
10
270.5
20
-83.83
11
270.5
21
-85.23
0
ARC
8
0
10
272.5
20
-85.23
40
2
50
180
51
270
0
LINE
8
0
10
287.5
20
-17.23
11
272.5
21
-17.23
0
ARC
8
0
10
272.5
20
-19.23
40
2
50
90
51
180
0
LINE
8
0
10
270.5
20
-19.23
11
270.5
21
-30.83
0
LINE
8
0
10
255.5
20
-83.83
11
270.5
21
-83.83
0
ARC
8
0
10
255.5
20
-66.83
40
2
50
149.9999999
51
180
0
LINE
8
0
10
253.5
20
-66.83
11
253.5
21
-81.83
0
ARC
8
0
10
255.5
20
-81.83
40
2
50
180
51
270
0
ARC
8
0
10
255.5
20
-49.83
40
2
50
149.9999999
51
180
0
LINE
8
0
10
253.5
20
-49.83
11
253.5
21
-64.83
0
ARC
8
0
10
255.5
20
-64.83
40
2
50
180
51
210.0000001
0
LINE
8
0
10
270.5
20
-30.83
11
255.5
21
-30.83
0
ARC
8
0
10
255.5
20
-32.83
40
2
50
90
51
180
0
LINE
8
0
10
253.5
20
-32.83
11
253.5
21
-47.83
0
ARC
8
0
10
255.5
20
-47.83
40
2
50
180
51
210.0000001
0
LINE
8
0
10
285.4835995
20
-103.688035
11
300.2557158
21
-101.0833123
0
ARC
8
0
10
299.9084195
20
-99.1136968
40
2
50
280
51
10
0
LINE
8
0
10
301.878035
20
-98.7664005
11
299.2733123
21
-83.9942842
0
ARC
8
0
10
297.3036968
20
-84.3415805
40
2
50
10
51
14.8204163
0
ARC
8
0
10
282.5315805
20
-86.9463032
40
2
50
188.1548193
51
190
0
LINE
8
0
10
280.561965
20
-87.2935995
11
282.021347
21
-95.5701661
0
ARC
8
0
10
285.1363032
20
-101.7184195
40
2
50
253.3760158
51
280
0
LINE
8
0
10
270.2468373
20
-110.5450753
11
283.8414541
21
-104.2058014
0
ARC
8
0
10
282.9962176
20
-102.3931858
40
2
50
295
51
321.6239787
0
LINE
8
0
10
282.021347
20
-95.5701661
11
278.4695592
21
-87.9533325
0
ARC
8
0
10
276.6569436
20
-88.798569
40
2
50
25
51
51.6545512
0
LINE
8
0
10
275.2883477
20
-87.23
11
262.2170903
21
-93.3252274
0
ARC
8
0
10
263.0623268
20
-95.137843
40
2
50
115
51
175.5466432
0
ARC
8
0
10
269.4016008
20
-108.7324598
40
2
50
266.0782336
51
295
0
LINE
8
0
10
255.5615048
20
-118.9274112
11
268.5518858
21
-111.4274112
0
ARC
8
0
10
267.5518858
20
-109.6953604
40
2
50
300
51
328.9217624
0
ARC
8
0
10
260.0518858
20
-96.7049794
40
2
50
59.4533582
51
120
0
LINE
8
0
10
259.0518858
20
-94.9729286
11
246.0615048
21
-102.4729286
0
ARC
8
0
10
247.0615048
20
-104.2049794
40
2
50
120
51
210
0
LINE
8
0
10
245.329454
20
-105.2049794
11
252.829454
21
-118.1953604
0
ARC
8
0
10
254.5615048
20
-117.1953604
40
2
50
210
51
300
0
LINE
8
0
10
297.51
20
-9.48
11
312.51
21
-9.48
0
ARC
8
0
10
312.51
20
-7.48
40
2
50
270
51
360
0
LINE
8
0
10
314.51
20
-7.48
11
314.51
21
7.52
0
ARC
8
0
10
312.51
20
7.52
40
2
50
0
51
90
0
LINE
8
0
10
312.51
20
9.52
11
297.51
21
9.52
0
ARC
8
0
10
297.51
20
7.52
40
2
50
90
51
180
0
LINE
8
0
10
295.51
20
7.52
11
295.51
21
-7.48
0
ARC
8
0
10
297.51
20
-7.48
40
2
50
180
51
270
0
LINE
8
0
10
150.0721574
20
-99.7449788
11
153.9384952
21
-102.4729286
0
LINE
8
0
10
153.9384952
20
-102.4729286
11
144.4384952
21
-118.9274112
0
LINE
8
0
10
144.4384952
20
-118.9274112
11
104.3602264
21
-102.9262205
0
ENDSEC
0
EOF