0
SECTION
2
HEADER
9
$INSUNITS
70
4
0
ENDSEC
0
SECTION
2
TABLES
0
TABLE
2
LTYPE
0
LTYPE
72
65
70
64
2
CONTINUOUS
3
______
73
0
40
0
0
ENDTAB
0
TABLE
2
LAYER
0
ENDTAB
0
ENDSEC
0
SECTION
2
ENTITIES
0
LINE
8
0
10
298.25
20
-143.25
11
312.25
21
-143.25
0
ARC
8
0
10
312.25
20
-140.25
40
3
50
270
51
360
0
LINE
8
0
10
315.25
20
-140.25
11
315.25
21
-125.75
0
ARC
8
0
10
312.25
20
-125.75
40
3
50
0
51
24.6243186
0
ARC
8
0
10
312.25
20
-123.25
40
3
50
335.3756814
51
360
0
LINE
8
0
10
315.25
20
-123.25
11
315.25
21
-108.75
0
ARC
8
0
10
312.25
20
-108.75
40
3
50
0
51
24.6243186
0
ARC
8
0
10
312.25
20
-106.25
40
3
50
335.3756814
51
360
0
LINE
8
0
10
315.25
20
-106.25
11
315.25
21
-91.75
0
ARC
8
0
10
312.25
20
-91.75
40
3
50
0
51
24.6243186
0
ARC
8
0
10
312.25
20
-89.25
40
3
50
335.3756814
51
360
0
LINE
8
0
10
315.25
20
-89.25
11
315.25
21
-74.75
0
ARC
8
0
10
312.25
20
-74.75
40
3
50
0
51
90
0
LINE
8
0
10
312.25
20
-71.75
11
298.25
21
-71.75
0
LINE
8
0
10
280.75
20
-156
11
295.25
21
-156
0
ARC
8
0
10
295.25
20
-153
40
3
50
270
51
360
0
LINE
8
0
10
298.25
20
-153
11
298.25
21
-143.25
0
LINE
8
0
10
277.75
20
-144.78
11
277.75
21
-153
0
ARC
8
0
10
280.75
20
-153
40
3
50
180
51
270
0
LINE
8
0
10
298.25
20
-71.75
11
298.25
21
-70.5
0
ARC
8
0
10
295.25
20
-70.5
40
3
50
0
51
90
0
LINE
8
0
10
295.25
20
-67.5
11
281.25
21
-67.5
0
LINE
8
0
10
264.8385335
20
-144.78
11
277.75
21
-144.78
0
LINE
8
0
10
281.25
20
-67.5
11
281.25
21
-59.28
0
ARC
8
0
10
278.25
20
-59.28
40
3
50
0
51
90
0
LINE
8
0
10
278.25
20
-56.28
11
263.75
21
-56.28
0
ARC
8
0
10
263.75
20
-59.28
40
3
50
90
51
180
0
LINE
8
0
10
260.75
20
-59.28
11
260.75
21
-60.53
0
LINE
8
0
10
260.75
20
-60.53
11
246.75
21
-60.53
0
ARC
8
0
10
246.75
20
-63.53
40
3
50
90
51
171.3730735
0
LINE
8
0
10
243.783942
20
-63.08
11
229.75
21
-63.08
0
ARC
8
0
10
229.75
20
-66.08
40
3
50
90
51
180
0
LINE
8
0
10
226.75
20
-66.08
11
226.75
21
-66.48
0
LINE
8
0
10
226.75
20
-66.48
11
212.75
21
-66.48
0
ARC
8
0
10
212.75
20
-69.48
40
3
50
90
51
180
0
LINE
8
0
10
209.75
20
-69.48
11
209.75
21
-80.08
0
LINE
8
0
10
195.75
20
-134.58
11
209.6245797
21
-134.58
0
ARC
8
0
10
195.75
20
-117.08
40
3
50
155.3756814
51
180
0
LINE
8
0
10
192.75
20
-117.08
11
192.75
21
-131.58
0
ARC
8
0
10
195.75
20
-131.58
40
3
50
180
51
270
0
ARC
8
0
10
195.75
20
-100.08
40
3
50
155.3756814
51
180
0
LINE
8
0
10
192.75
20
-100.08
11
192.75
21
-114.58
0
ARC
8
0
10
195.75
20
-114.58
40
3
50
180
51
204.6243186
0
LINE
8
0
10
209.75
20
-80.08
11
195.75
21
-80.08
0
ARC
8
0
10
195.75
20
-83.08
40
3
50
90
51
180
0
LINE
8
0
10
192.75
20
-83.08
11
192.75
21
-97.58
0
ARC
8
0
10
195.75
20
-97.58
40
3
50
180
51
204.6243186
0
LINE
8
0
10
239.6473462
20
-153.6521543
11
240.13975
21
-153.5653302
0
ARC
8
0
10
239.6188055
20
-150.6109069
40
3
50
280
51
305.7965459
0
LINE
8
0
10
196.1530111
20
-171.1519303
11
196.5860238
21
-170.9019303
0
LINE
8
0
10
186.3360238
20
-153.1484095
11
185.9030111
21
-153.3984095
0
ARC
8
0
10
187.4030111
20
-155.9964857
40
3
50
120
51
210
0
LINE
8
0
10
184.8049349
20
-157.4964857
11
192.0549349
21
-170.0538541
0
ARC
8
0
10
194.6530111
20
-168.5538541
40
3
50
210
51
300
0
LINE
8
0
10
209.6245797
20
-134.58
11
186.3360238
21
-153.1484095
0
LINE
8
0
10
196.5860238
20
-170.9019303
11
239.6473462
21
-153.6521543
0
LINE
8
0
10
241.3735318
20
-153.0442041
11
264.8385335
21
-144.78
0
ENDSEC
0
EOF