0
SECTION
2
HEADER
9
$INSUNITS
70
4
0
ENDSEC
0
SECTION
2
TABLES
0
TABLE
2
LTYPE
0
LTYPE
72
65
70
64
2
CONTINUOUS
3
______
73
0
40
0
0
ENDTAB
0
TABLE
2
LAYER
0
ENDTAB
0
ENDSEC
0
SECTION
2
ENTITIES
0
LINE
8
0
10
298.25
20
-143.25
11
312.25
21
-143.25
0
ARC
8
0
10
312.25
20
-140.25
40
3
50
270
51
360
0
LINE
8
0
10
315.25
20
-140.25
11
315.25
21
-125.75
0
ARC
8
0
10
312.25
20
-125.75
40
3
50
0
51
24.6243186
0
ARC
8
0
10
312.25
20
-123.25
40
3
50
335.3756814
51
360
0
LINE
8
0
10
315.25
20
-123.25
11
315.25
21
-108.75
0
ARC
8
0
10
312.25
20
-108.75
40
3
50
0
51
24.6243186
0
ARC
8
0
10
312.25
20
-106.25
40
3
50
335.3756814
51
360
0
LINE
8
0
10
315.25
20
-106.25
11
315.25
21
-91.75
0
ARC
8
0
10
312.25
20
-91.75
40
3
50
0
51
24.6243186
0
ARC
8
0
10
312.25
20
-89.25
40
3
50
335.3756814
51
360
0
LINE
8
0
10
315.25
20
-89.25
11
315.25
21
-74.75
0
ARC
8
0
10
312.25
20
-74.75
40
3
50
0
51
90
0
LINE
8
0
10
312.25
20
-71.75
11
298.25
21
-71.75
0
LINE
8
0
10
280.75
20
-156
11
295.25
21
-156
0
ARC
8
0
10
295.25
20
-153
40
3
50
270
51
360
0
LINE
8
0
10
298.25
20
-153
11
298.25
21
-143.25
0
LINE
8
0
10
277.75
20
-144.78
11
277.75
21
-153
0
ARC
8
0
10
280.75
20
-153
40
3
50
180
51
270
0
LINE
8
0
10
298.25
20
-71.75
11
298.25
21
-70.5
0
ARC
8
0
10
295.25
20
-70.5
40
3
50
0
51
90
0
LINE
8
0
10
295.25
20
-67.5
11
281.25
21
-67.5
0
LINE
8
0
10
264.8385335
20
-144.78
11
277.75
21
-144.78
0
LINE
8
0
10
281.25
20
-67.5
11
281.25
21
-59.28
0
ARC
8
0
10
278.25
20
-59.28
40
3
50
0
51
90
0
LINE
8
0
10
278.25
20
-56.28
11
263.75
21
-56.28
0
ARC
8
0
10
263.75
20
-59.28
40
3
50
90
51
180
0
LINE
8
0
10
260.75
20
-59.28
11
260.75
21
-60.53
0
LINE
8
0
10
260.75
20
-60.53
11
246.75
21
-60.53
0
ARC
8
0
10
246.75
20
-63.53
40
3
50
90
51
171.3730735
0
LINE
8
0
10
243.783942
20
-63.08
11
229.75
21
-63.08
0
ARC
8
0
10
229.75
20
-66.08
40
3
50
90
51
180
0
LINE
8
0
10
226.75
20
-66.08
11
226.75
21
-66.48
0
LINE
8
0
10
226.75
20
-66.48
11
212.75
21
-66.48
0
ARC
8
0
10
212.75
20
-69.48
40
3
50
90
51
180
0
LINE
8
0
10
209.75
20
-69.48
11
209.75
21
-80.08
0
LINE
8
0
10
195.75
20
-134.58
11
209.6245797
21
-134.58
0
ARC
8
0
10
195.75
20
-117.08
40
3
50
155.3756814
51
180
0
LINE
8
0
10
192.75
20
-117.08
11
192.75
21
-131.58
0
ARC
8
0
10
195.75
20
-131.58
40
3
50
180
51
270
0
ARC
8
0
10
195.75
20
-100.08
40
3
50
155.3756814
51
180
0
LINE
8
0
10
192.75
20
-100.08
11
192.75
21
-114.58
0
ARC
8
0
10
195.75
20
-114.58
40
3
50
180
51
204.6243186
0
LINE
8
0
10
209.75
20
-80.08
11
195.75
21
-80.08
0
ARC
8
0
10
195.75
20
-83.08
40
3
50
90
51
180
0
LINE
8
0
10
192.75
20
-83.08
11
192.75
21
-97.58
0
ARC
8
0
10
195.75
20
-97.58
40
3
50
180
51
204.6243186
0
LINE
8
0
10
239.6473462
20
-153.6521543
11
240.13975
21
-153.5653302
0
ARC
8
0
10
239.6188055
20
-150.6109069
40
3
50
280
51
305.7965459
0
LINE
8
0
10
196.1530111
20
-171.1519303
11
196.5860238
21
-170.9019303
0
LINE
8
0
10
186.3360238
20
-153.1484095
11
185.9030111
21
-153.3984095
0
ARC
8
0
10
187.4030111
20
-155.9964857
40
3
50
120
51
210
0
LINE
8
0
10
184.8049349
20
-157.4964857
11
192.0549349
21
-170.0538541
0
ARC
8
0
10
194.6530111
20
-168.5538541
40
3
50
210
51
300
0
LINE
8
0
10
209.6245797
20
-134.58
11
186.3360238
21
-153.1484095
0
LINE
8
0
10
196.5860238
20
-170.9019303
11
239.6473462
21
-153.6521543
0
LINE
8
0
10
241.3735318
20
-153.0442041
11
264.8385335
21
-144.78
0
LINE
8
0
10
301.55
20
-136.45
11
308.45
21
-136.45
0
LINE
8
0
10
308.45
20
-136.45
11
308.45
21
-129.55
0
LINE
8
0
10
308.45
20
-129.55
11
301.55
21
-129.55
0
LINE
8
0
10
301.55
20
-129.55
11
301.55
21
-136.45
0
LINE
8
0
10
301.55
20
-119.45
11
308.45
21
-119.45
0
LINE
8
0
10
308.45
20
-119.45
11
308.45
21
-112.55
0
LINE
8
0
10
308.45
20
-112.55
11
301.55
21
-112.55
0
LINE
8
0
10
301.55
20
-112.55
11
301.55
21
-119.45
0
LINE
8
0
10
301.55
20
-102.45
11
308.45
21
-102.45
0
LINE
8
0
10
308.45
20
-102.45
11
308.45
21
-95.55
0
LINE
8
0
10
308.45
20
-95.55
11
301.55
21
-95.55
0
LINE
8
0
10
301.55
20
-95.55
11
301.55
21
-102.45
0
LINE
8
0
10
301.55
20
-85.45
11
308.45
21
-85.45
0
LINE
8
0
10
308.45
20
-85.45
11
308.45
21
-78.55
0
LINE
8
0
10
308.45
20
-78.55
11
301.55
21
-78.55
0
LINE
8
0
10
301.55
20
-78.55
11
301.55
21
-85.45
0
LINE
8
0
10
284.55
20
-149.2
11
291.45
21
-149.2
0
LINE
8
0
10
291.45
20
-149.2
11
291.45
21
-142.3
0
LINE
8
0
10
291.45
20
-142.3
11
284.55
21
-142.3
0
LINE
8
0
10
284.55
20
-142.3
11
284.55
21
-149.2
0
LINE
8
0
10
284.55
20
-132.2
11
291.45
21
-132.2
0
LINE
8
0
10
291.45
20
-132.2
11
291.45
21
-125.3
0
LINE
8
0
10
291.45
20
-125.3
11
284.55
21
-125.3
0
LINE
8
0
10
284.55
20
-125.3
11
284.55
21
-132.2
0
LINE
8
0
10
284.55
20
-115.2
11
291.45
21
-115.2
0
LINE
8
0
10
291.45
20
-115.2
11
291.45
21
-108.3
0
LINE
8
0
10
291.45
20
-108.3
11
284.55
21
-108.3
0
LINE
8
0
10
284.55
20
-108.3
11
284.55
21
-115.2
0
LINE
8
0
10
284.55
20
-98.2
11
291.45
21
-98.2
0
LINE
8
0
10
291.45
20
-98.2
11
291.45
21
-91.3
0
LINE
8
0
10
291.45
20
-91.3
11
284.55
21
-91.3
0
LINE
8
0
10
284.55
20
-91.3
11
284.55
21
-98.2
0
LINE
8
0
10
284.55
20
-81.2
11
291.45
21
-81.2
0
LINE
8
0
10
291.45
20
-81.2
11
291.45
21
-74.3
0
LINE
8
0
10
291.45
20
-74.3
11
284.55
21
-74.3
0
LINE
8
0
10
284.55
20
-74.3
11
284.55
21
-81.2
0
LINE
8
0
10
267.55
20
-137.98
11
274.45
21
-137.98
0
LINE
8
0
10
274.45
20
-137.98
11
274.45
21
-131.08
0
LINE
8
0
10
274.45
20
-131.08
11
267.55
21
-131.08
0
LINE
8
0
10
267.55
20
-131.08
11
267.55
21
-137.98
0
LINE
8
0
10
267.55
20
-120.98
11
274.45
21
-120.98
0
LINE
8
0
10
274.45
20
-120.98
11
274.45
21
-114.08
0
LINE
8
0
10
274.45
20
-114.08
11
267.55
21
-114.08
0
LINE
8
0
10
267.55
20
-114.08
11
267.55
21
-120.98
0
LINE
8
0
10
267.55
20
-103.98
11
274.45
21
-103.98
0
LINE
8
0
10
274.45
20
-103.98
11
274.45
21
-97.08
0
LINE
8
0
10
274.45
20
-97.08
11
267.55
21
-97.08
0
LINE
8
0
10
267.55
20
-97.08
11
267.55
21
-103.98
0
LINE
8
0
10
267.55
20
-86.98
11
274.45
21
-86.98
0
LINE
8
0
10
274.45
20
-86.98
11
274.45
21
-80.08
0
LINE
8
0
10
274.45
20
-80.08
11
267.55
21
-80.08
0
LINE
8
0
10
267.55
20
-80.08
11
267.55
21
-86.98
0
LINE
8
0
10
267.55
20
-69.98
11
274.45
21
-69.98
0
LINE
8
0
10
274.45
20
-69.98
11
274.45
21
-63.08
0
LINE
8
0
10
274.45
20
-63.08
11
267.55
21
-63.08
0
LINE
8
0
10
267.55
20
-63.08
11
267.55
21
-69.98
0
LINE
8
0
10
250.55
20
-125.23
11
257.45
21
-125.23
0
LINE
8
0
10
257.45
20
-125.23
11
257.45
21
-118.33
0
LINE
8
0
10
257.45
20
-118.33
11
250.55
21
-118.33
0
LINE
8
0
10
250.55
20
-118.33
11
250.55
21
-125.23
0
LINE
8
0
10
250.55
20
-108.23
11
257.45
21
-108.23
0
LINE
8
0
10
257.45
20
-108.23
11
257.45
21
-101.33
0
LINE
8
0
10
257.45
20
-101.33
11
250.55
21
-101.33
0
LINE
8
0
10
250.55
20
-101.33
11
250.55
21
-108.23
0
LINE
8
0
10
250.55
20
-91.23
11
257.45
21
-91.23
0
LINE
8
0
10
257.45
20
-91.23
11
257.45
21
-84.33
0
LINE
8
0
10
257.45
20
-84.33
11
250.55
21
-84.33
0
LINE
8
0
10
250.55
20
-84.33
11
250.55
21
-91.23
0
LINE
8
0
10
250.55
20
-74.23
11
257.45
21
-74.23
0
LINE
8
0
10
257.45
20
-74.23
11
257.45
21
-67.33
0
LINE
8
0
10
257.45
20
-67.33
11
250.55
21
-67.33
0
LINE
8
0
10
250.55
20
-67.33
11
250.55
21
-74.23
0
LINE
8
0
10
233.55
20
-127.78
11
240.45
21
-127.78
0
LINE
8
0
10
240.45
20
-127.78
11
240.45
21
-120.88
0
LINE
8
0
10
240.45
20
-120.88
11
233.55
21
-120.88
0
LINE
8
0
10
233.55
20
-120.88
11
233.55
21
-127.78
0
LINE
8
0
10
233.55
20
-110.78
11
240.45
21
-110.78
0
LINE
8
0
10
240.45
20
-110.78
11
240.45
21
-103.88
0
LINE
8
0
10
240.45
20
-103.88
11
233.55
21
-103.88
0
LINE
8
0
10
233.55
20
-103.88
11
233.55
21
-110.78
0
LINE
8
0
10
233.55
20
-93.78
11
240.45
21
-93.78
0
LINE
8
0
10
240.45
20
-93.78
11
240.45
21
-86.88
0
LINE
8
0
10
240.45
20
-86.88
11
233.55
21
-86.88
0
LINE
8
0
10
233.55
20
-86.88
11
233.55
21
-93.78
0
LINE
8
0
10
233.55
20
-76.78
11
240.45
21
-76.78
0
LINE
8
0
10
240.45
20
-76.78
11
240.45
21
-69.88
0
LINE
8
0
10
240.45
20
-69.88
11
233.55
21
-69.88
0
LINE
8
0
10
233.55
20
-69.88
11
233.55
21
-76.78
0
LINE
8
0
10
216.55
20
-131.18
11
223.45
21
-131.18
0
LINE
8
0
10
223.45
20
-131.18
11
223.45
21
-124.28
0
LINE
8
0
10
223.45
20
-124.28
11
216.55
21
-124.28
0
LINE
8
0
10
216.55
20
-124.28
11
216.55
21
-131.18
0
LINE
8
0
10
216.55
20
-114.18
11
223.45
21
-114.18
0
LINE
8
0
10
223.45
20
-114.18
11
223.45
21
-107.28
0
LINE
8
0
10
223.45
20
-107.28
11
216.55
21
-107.28
0
LINE
8
0
10
216.55
20
-107.28
11
216.55
21
-114.18
0
LINE
8
0
10
216.55
20
-97.18
11
223.45
21
-97.18
0
LINE
8
0
10
223.45
20
-97.18
11
223.45
21
-90.28
0
LINE
8
0
10
223.45
20
-90.28
11
216.55
21
-90.28
0
LINE
8
0
10
216.55
20
-90.28
11
216.55
21
-97.18
0
LINE
8
0
10
216.55
20
-80.18
11
223.45
21
-80.18
0
LINE
8
0
10
223.45
20
-80.18
11
223.45
21
-73.28
0
LINE
8
0
10
223.45
20
-73.28
11
216.55
21
-73.28
0
LINE
8
0
10
216.55
20
-73.28
11
216.55
21
-80.18
0
LINE
8
0
10
199.55
20
-127.78
11
206.45
21
-127.78
0
LINE
8
0
10
206.45
20
-127.78
11
206.45
21
-120.88
0
LINE
8
0
10
206.45
20
-120.88
11
199.55
21
-120.88
0
LINE
8
0
10
199.55
20
-120.88
11
199.55
21
-127.78
0
LINE
8
0
10
199.55
20
-110.78
11
206.45
21
-110.78
0
LINE
8
0
10
206.45
20
-110.78
11
206.45
21
-103.88
0
LINE
8
0
10
206.45
20
-103.88
11
199.55
21
-103.88
0
LINE
8
0
10
199.55
20
-103.88
11
199.55
21
-110.78
0
LINE
8
0
10
199.55
20
-93.78
11
206.45
21
-93.78
0
LINE
8
0
10
206.45
20
-93.78
11
206.45
21
-86.88
0
LINE
8
0
10
206.45
20
-86.88
11
199.55
21
-86.88
0
LINE
8
0
10
199.55
20
-86.88
11
199.55
21
-93.78
0
LINE
8
0
10
228.4214995
20
-148.726673
11
235.216673
21
-147.5285005
0
LINE
8
0
10
235.216673
20
-147.5285005
11
234.0185005
21
-140.733327
0
LINE
8
0
10
234.0185005
20
-140.733327
11
227.223327
21
-141.9314995
0
LINE
8
0
10
227.223327
20
-141.9314995
11
228.4214995
21
-148.726673
0
LINE
8
0
10
211.3605433
20
-155.0503093
11
217.6140671
21
-152.1342433
0
LINE
8
0
10
217.6140671
20
-152.1342433
11
214.6980011
21
-145.8807195
0
LINE
8
0
10
214.6980011
20
-145.8807195
11
208.4444773
21
-148.7967855
0
LINE
8
0
10
208.4444773
20
-148.7967855
11
211.3605433
21
-155.0503093
0
LINE
8
0
10
196.0439077
20
-163.3629575
11
202.0194829
21
-159.9129575
0
LINE
8
0
10
202.0194829
20
-159.9129575
11
198.5694829
21
-153.9373823
0
LINE
8
0
10
198.5694829
20
-153.9373823
11
192.5939077
21
-157.3873823
0
LINE
8
0
10
192.5939077
20
-157.3873823
11
196.0439077
21
-163.3629575
0
ENDSEC
0
EOF