0
SECTION
2
HEADER
9
$INSUNITS
70
4
0
ENDSEC
0
SECTION
2
TABLES
0
TABLE
2
LTYPE
0
LTYPE
72
65
70
64
2
CONTINUOUS
3
______
73
0
40
0
0
ENDTAB
0
TABLE
2
LAYER
0
ENDTAB
0
ENDSEC
0
SECTION
2
ENTITIES
0
LINE
8
0
10
298.25
20
-143.25
11
312.25
21
-143.25
0
ARC
8
0
10
312.25
20
-140.25
40
3
50
270
51
360
0
LINE
8
0
10
315.25
20
-140.25
11
315.25
21
-125.75
0
ARC
8
0
10
312.25
20
-125.75
40
3
50
0
51
24.6243186
0
ARC
8
0
10
312.25
20
-123.25
40
3
50
335.3756814
51
360
0
LINE
8
0
10
315.25
20
-123.25
11
315.25
21
-108.75
0
ARC
8
0
10
312.25
20
-108.75
40
3
50
0
51
24.6243186
0
ARC
8
0
10
312.25
20
-106.25
40
3
50
335.3756814
51
360
0
LINE
8
0
10
315.25
20
-106.25
11
315.25
21
-91.75
0
ARC
8
0
10
312.25
20
-91.75
40
3
50
0
51
24.6243186
0
ARC
8
0
10
312.25
20
-89.25
40
3
50
335.3756814
51
360
0
LINE
8
0
10
315.25
20
-89.25
11
315.25
21
-74.75
0
ARC
8
0
10
312.25
20
-74.75
40
3
50
0
51
90
0
LINE
8
0
10
312.25
20
-71.75
11
298.25
21
-71.75
0
LINE
8
0
10
280.75
20
-156
11
295.25
21
-156
0
ARC
8
0
10
295.25
20
-153
40
3
50
270
51
360
0
LINE
8
0
10
298.25
20
-153
11
298.25
21
-143.25
0
LINE
8
0
10
277.75
20
-144.78
11
277.75
21
-153
0
ARC
8
0
10
280.75
20
-153
40
3
50
180
51
270
0
LINE
8
0
10
298.25
20
-71.75
11
298.25
21
-70.5
0
ARC
8
0
10
295.25
20
-70.5
40
3
50
0
51
90
0
LINE
8
0
10
295.25
20
-67.5
11
281.25
21
-67.5
0
LINE
8
0
10
263.75
20
-144.78
11
277.75
21
-144.78
0
LINE
8
0
10
260.75
20
-132.03
11
260.75
21
-141.78
0
ARC
8
0
10
263.75
20
-141.78
40
3
50
180
51
270
0
LINE
8
0
10
281.25
20
-67.5
11
281.25
21
-59.28
0
ARC
8
0
10
278.25
20
-59.28
40
3
50
0
51
90
0
LINE
8
0
10
278.25
20
-56.28
11
263.75
21
-56.28
0
ARC
8
0
10
263.75
20
-59.28
40
3
50
90
51
180
0
LINE
8
0
10
260.75
20
-59.28
11
260.75
21
-60.53
0
LINE
8
0
10
247.216058
20
-132.03
11
260.75
21
-132.03
0
LINE
8
0
10
260.75
20
-60.53
11
246.75
21
-60.53
0
ARC
8
0
10
246.75
20
-63.53
40
3
50
90
51
171.3730735
0
LINE
8
0
10
239.5367472
20
-134.58
11
244.25
21
-134.58
0
ARC
8
0
10
244.25
20
-131.58
40
3
50
270
51
351.3730735
0
LINE
8
0
10
243.783942
20
-63.08
11
229.75
21
-63.08
0
ARC
8
0
10
229.75
20
-66.08
40
3
50
90
51
180
0
LINE
8
0
10
226.75
20
-66.08
11
226.75
21
-66.48
0
LINE
8
0
10
212.75
20
-137.98
11
215.6017106
21
-137.98
0
LINE
8
0
10
217.470332
20
-137.98
11
219.9498399
21
-137.98
0
LINE
8
0
10
209.75
20
-134.58
11
209.75
21
-134.98
0
ARC
8
0
10
212.75
20
-134.98
40
3
50
180
51
270
0
LINE
8
0
10
226.75
20
-66.48
11
212.75
21
-66.48
0
ARC
8
0
10
212.75
20
-69.48
40
3
50
90
51
180
0
LINE
8
0
10
209.75
20
-69.48
11
209.75
21
-80.08
0
LINE
8
0
10
195.75
20
-134.58
11
209.75
21
-134.58
0
ARC
8
0
10
195.75
20
-117.08
40
3
50
155.3756814
51
180
0
LINE
8
0
10
192.75
20
-117.08
11
192.75
21
-131.58
0
ARC
8
0
10
195.75
20
-131.58
40
3
50
180
51
270
0
ARC
8
0
10
195.75
20
-100.08
40
3
50
155.3756814
51
180
0
LINE
8
0
10
192.75
20
-100.08
11
192.75
21
-114.58
0
ARC
8
0
10
195.75
20
-114.58
40
3
50
180
51
204.6243186
0
LINE
8
0
10
209.75
20
-80.08
11
195.75
21
-80.08
0
ARC
8
0
10
195.75
20
-83.08
40
3
50
90
51
180
0
LINE
8
0
10
192.75
20
-83.08
11
192.75
21
-97.58
0
ARC
8
0
10
195.75
20
-97.58
40
3
50
180
51
204.6243186
0
LINE
8
0
10
225.8600376
20
-156.0832288
11
240.13975
21
-153.5653302
0
ARC
8
0
10
239.6188055
20
-150.6109069
40
3
50
280
51
10
0
LINE
8
0
10
242.5732288
20
-150.0899624
11
240.0553302
21
-135.81025
0
ARC
8
0
10
237.1009069
20
-136.3311945
40
3
50
10
51
35.7134264
0
ARC
8
0
10
222.8211945
20
-138.8490931
40
3
50
163.1601414
51
190
0
LINE
8
0
10
219.8667712
20
-139.3700376
11
220.2934995
21
-141.7901339
0
ARC
8
0
10
225.3390931
20
-153.1288055
40
3
50
259.6286443
51
280
0
LINE
8
0
10
210.7903779
20
-162.8191516
11
223.9318408
21
-156.6911868
0
ARC
8
0
10
222.6639861
20
-153.9722635
40
3
50
295
51
315.3713561
0
LINE
8
0
10
220.2934995
20
-141.7901339
11
219.2549446
21
-139.5629458
0
ARC
8
0
10
216.5360213
20
-140.8308005
40
3
50
25
51
71.8541539
0
ARC
8
0
10
216.5360213
20
-140.8308005
40
3
50
108.1458461
51
115
0
LINE
8
0
10
215.2681665
20
-138.1118772
11
202.1267036
21
-144.239842
0
ARC
8
0
10
203.3945583
20
-146.9587653
40
3
50
115
51
157.6860634
0
ARC
8
0
10
209.5225231
20
-160.1002283
40
3
50
271.7500279
51
295
0
LINE
8
0
10
196.1530111
20
-171.1519303
11
208.7103795
21
-163.9019303
0
ARC
8
0
10
207.2103795
20
-161.3038541
40
3
50
300
51
323.2499736
0
ARC
8
0
10
199.9603795
20
-148.7464857
40
3
50
77.3139391
51
120
0
LINE
8
0
10
198.4603795
20
-146.1484095
11
185.9030111
21
-153.3984095
0
ARC
8
0
10
187.4030111
20
-155.9964857
40
3
50
120
51
210
0
LINE
8
0
10
184.8049349
20
-157.4964857
11
192.0549349
21
-170.0538541
0
ARC
8
0
10
194.6530111
20
-168.5538541
40
3
50
210
51
300
0
ENDSEC
0
EOF