0
SECTION
2
HEADER
9
$INSUNITS
70
4
0
ENDSEC
0
SECTION
2
TABLES
0
TABLE
2
LTYPE
0
LTYPE
72
65
70
64
2
CONTINUOUS
3
______
73
0
40
0
0
ENDTAB
0
TABLE
2
LAYER
0
ENDTAB
0
ENDSEC
0
SECTION
2
ENTITIES
0
LINE
8
0
10
301.55
20
-136.45
11
308.45
21
-136.45
0
LINE
8
0
10
308.45
20
-136.45
11
308.45
21
-129.55
0
LINE
8
0
10
308.45
20
-129.55
11
301.55
21
-129.55
0
LINE
8
0
10
301.55
20
-129.55
11
301.55
21
-136.45
0
LINE
8
0
10
301.55
20
-119.45
11
308.45
21
-119.45
0
LINE
8
0
10
308.45
20
-119.45
11
308.45
21
-112.55
0
LINE
8
0
10
308.45
20
-112.55
11
301.55
21
-112.55
0
LINE
8
0
10
301.55
20
-112.55
11
301.55
21
-119.45
0
LINE
8
0
10
301.55
20
-102.45
11
308.45
21
-102.45
0
LINE
8
0
10
308.45
20
-102.45
11
308.45
21
-95.55
0
LINE
8
0
10
308.45
20
-95.55
11
301.55
21
-95.55
0
LINE
8
0
10
301.55
20
-95.55
11
301.55
21
-102.45
0
LINE
8
0
10
301.55
20
-85.45
11
308.45
21
-85.45
0
LINE
8
0
10
308.45
20
-85.45
11
308.45
21
-78.55
0
LINE
8
0
10
308.45
20
-78.55
11
301.55
21
-78.55
0
LINE
8
0
10
301.55
20
-78.55
11
301.55
21
-85.45
0
LINE
8
0
10
284.55
20
-149.2
11
291.45
21
-149.2
0
LINE
8
0
10
291.45
20
-149.2
11
291.45
21
-142.3
0
LINE
8
0
10
291.45
20
-142.3
11
284.55
21
-142.3
0
LINE
8
0
10
284.55
20
-142.3
11
284.55
21
-149.2
0
LINE
8
0
10
284.55
20
-132.2
11
291.45
21
-132.2
0
LINE
8
0
10
291.45
20
-132.2
11
291.45
21
-125.3
0
LINE
8
0
10
291.45
20
-125.3
11
284.55
21
-125.3
0
LINE
8
0
10
284.55
20
-125.3
11
284.55
21
-132.2
0
LINE
8
0
10
284.55
20
-115.2
11
291.45
21
-115.2
0
LINE
8
0
10
291.45
20
-115.2
11
291.45
21
-108.3
0
LINE
8
0
10
291.45
20
-108.3
11
284.55
21
-108.3
0
LINE
8
0
10
284.55
20
-108.3
11
284.55
21
-115.2
0
LINE
8
0
10
284.55
20
-98.2
11
291.45
21
-98.2
0
LINE
8
0
10
291.45
20
-98.2
11
291.45
21
-91.3
0
LINE
8
0
10
291.45
20
-91.3
11
284.55
21
-91.3
0
LINE
8
0
10
284.55
20
-91.3
11
284.55
21
-98.2
0
LINE
8
0
10
284.55
20
-81.2
11
291.45
21
-81.2
0
LINE
8
0
10
291.45
20
-81.2
11
291.45
21
-74.3
0
LINE
8
0
10
291.45
20
-74.3
11
284.55
21
-74.3
0
LINE
8
0
10
284.55
20
-74.3
11
284.55
21
-81.2
0
LINE
8
0
10
267.55
20
-137.98
11
274.45
21
-137.98
0
LINE
8
0
10
274.45
20
-137.98
11
274.45
21
-131.08
0
LINE
8
0
10
274.45
20
-131.08
11
267.55
21
-131.08
0
LINE
8
0
10
267.55
20
-131.08
11
267.55
21
-137.98
0
LINE
8
0
10
267.55
20
-120.98
11
274.45
21
-120.98
0
LINE
8
0
10
274.45
20
-120.98
11
274.45
21
-114.08
0
LINE
8
0
10
274.45
20
-114.08
11
267.55
21
-114.08
0
LINE
8
0
10
267.55
20
-114.08
11
267.55
21
-120.98
0
LINE
8
0
10
267.55
20
-103.98
11
274.45
21
-103.98
0
LINE
8
0
10
274.45
20
-103.98
11
274.45
21
-97.08
0
LINE
8
0
10
274.45
20
-97.08
11
267.55
21
-97.08
0
LINE
8
0
10
267.55
20
-97.08
11
267.55
21
-103.98
0
LINE
8
0
10
267.55
20
-86.98
11
274.45
21
-86.98
0
LINE
8
0
10
274.45
20
-86.98
11
274.45
21
-80.08
0
LINE
8
0
10
274.45
20
-80.08
11
267.55
21
-80.08
0
LINE
8
0
10
267.55
20
-80.08
11
267.55
21
-86.98
0
LINE
8
0
10
267.55
20
-69.98
11
274.45
21
-69.98
0
LINE
8
0
10
274.45
20
-69.98
11
274.45
21
-63.08
0
LINE
8
0
10
274.45
20
-63.08
11
267.55
21
-63.08
0
LINE
8
0
10
267.55
20
-63.08
11
267.55
21
-69.98
0
LINE
8
0
10
250.55
20
-125.23
11
257.45
21
-125.23
0
LINE
8
0
10
257.45
20
-125.23
11
257.45
21
-118.33
0
LINE
8
0
10
257.45
20
-118.33
11
250.55
21
-118.33
0
LINE
8
0
10
250.55
20
-118.33
11
250.55
21
-125.23
0
LINE
8
0
10
250.55
20
-108.23
11
257.45
21
-108.23
0
LINE
8
0
10
257.45
20
-108.23
11
257.45
21
-101.33
0
LINE
8
0
10
257.45
20
-101.33
11
250.55
21
-101.33
0
LINE
8
0
10
250.55
20
-101.33
11
250.55
21
-108.23
0
LINE
8
0
10
250.55
20
-91.23
11
257.45
21
-91.23
0
LINE
8
0
10
257.45
20
-91.23
11
257.45
21
-84.33
0
LINE
8
0
10
257.45
20
-84.33
11
250.55
21
-84.33
0
LINE
8
0
10
250.55
20
-84.33
11
250.55
21
-91.23
0
LINE
8
0
10
250.55
20
-74.23
11
257.45
21
-74.23
0
LINE
8
0
10
257.45
20
-74.23
11
257.45
21
-67.33
0
LINE
8
0
10
257.45
20
-67.33
11
250.55
21
-67.33
0
LINE
8
0
10
250.55
20
-67.33
11
250.55
21
-74.23
0
LINE
8
0
10
233.55
20
-127.78
11
240.45
21
-127.78
0
LINE
8
0
10
240.45
20
-127.78
11
240.45
21
-120.88
0
LINE
8
0
10
240.45
20
-120.88
11
233.55
21
-120.88
0
LINE
8
0
10
233.55
20
-120.88
11
233.55
21
-127.78
0
LINE
8
0
10
233.55
20
-110.78
11
240.45
21
-110.78
0
LINE
8
0
10
240.45
20
-110.78
11
240.45
21
-103.88
0
LINE
8
0
10
240.45
20
-103.88
11
233.55
21
-103.88
0
LINE
8
0
10
233.55
20
-103.88
11
233.55
21
-110.78
0
LINE
8
0
10
233.55
20
-93.78
11
240.45
21
-93.78
0
LINE
8
0
10
240.45
20
-93.78
11
240.45
21
-86.88
0
LINE
8
0
10
240.45
20
-86.88
11
233.55
21
-86.88
0
LINE
8
0
10
233.55
20
-86.88
11
233.55
21
-93.78
0
LINE
8
0
10
233.55
20
-76.78
11
240.45
21
-76.78
0
LINE
8
0
10
240.45
20
-76.78
11
240.45
21
-69.88
0
LINE
8
0
10
240.45
20
-69.88
11
233.55
21
-69.88
0
LINE
8
0
10
233.55
20
-69.88
11
233.55
21
-76.78
0
LINE
8
0
10
216.55
20
-131.18
11
223.45
21
-131.18
0
LINE
8
0
10
223.45
20
-131.18
11
223.45
21
-124.28
0
LINE
8
0
10
223.45
20
-124.28
11
216.55
21
-124.28
0
LINE
8
0
10
216.55
20
-124.28
11
216.55
21
-131.18
0
LINE
8
0
10
216.55
20
-114.18
11
223.45
21
-114.18
0
LINE
8
0
10
223.45
20
-114.18
11
223.45
21
-107.28
0
LINE
8
0
10
223.45
20
-107.28
11
216.55
21
-107.28
0
LINE
8
0
10
216.55
20
-107.28
11
216.55
21
-114.18
0
LINE
8
0
10
216.55
20
-97.18
11
223.45
21
-97.18
0
LINE
8
0
10
223.45
20
-97.18
11
223.45
21
-90.28
0
LINE
8
0
10
223.45
20
-90.28
11
216.55
21
-90.28
0
LINE
8
0
10
216.55
20
-90.28
11
216.55
21
-97.18
0
LINE
8
0
10
216.55
20
-80.18
11
223.45
21
-80.18
0
LINE
8
0
10
223.45
20
-80.18
11
223.45
21
-73.28
0
LINE
8
0
10
223.45
20
-73.28
11
216.55
21
-73.28
0
LINE
8
0
10
216.55
20
-73.28
11
216.55
21
-80.18
0
LINE
8
0
10
199.55
20
-127.78
11
206.45
21
-127.78
0
LINE
8
0
10
206.45
20
-127.78
11
206.45
21
-120.88
0
LINE
8
0
10
206.45
20
-120.88
11
199.55
21
-120.88
0
LINE
8
0
10
199.55
20
-120.88
11
199.55
21
-127.78
0
LINE
8
0
10
199.55
20
-110.78
11
206.45
21
-110.78
0
LINE
8
0
10
206.45
20
-110.78
11
206.45
21
-103.88
0
LINE
8
0
10
206.45
20
-103.88
11
199.55
21
-103.88
0
LINE
8
0
10
199.55
20
-103.88
11
199.55
21
-110.78
0
LINE
8
0
10
199.55
20
-93.78
11
206.45
21
-93.78
0
LINE
8
0
10
206.45
20
-93.78
11
206.45
21
-86.88
0
LINE
8
0
10
206.45
20
-86.88
11
199.55
21
-86.88
0
LINE
8
0
10
199.55
20
-86.88
11
199.55
21
-93.78
0
LINE
8
0
10
228.4214995
20
-148.726673
11
235.216673
21
-147.5285005
0
LINE
8
0
10
235.216673
20
-147.5285005
11
234.0185005
21
-140.733327
0
LINE
8
0
10
234.0185005
20
-140.733327
11
227.223327
21
-141.9314995
0
LINE
8
0
10
227.223327
20
-141.9314995
11
228.4214995
21
-148.726673
0
LINE
8
0
10
211.3605433
20
-155.0503093
11
217.6140671
21
-152.1342433
0
LINE
8
0
10
217.6140671
20
-152.1342433
11
214.6980011
21
-145.8807195
0
LINE
8
0
10
214.6980011
20
-145.8807195
11
208.4444773
21
-148.7967855
0
LINE
8
0
10
208.4444773
20
-148.7967855
11
211.3605433
21
-155.0503093
0
LINE
8
0
10
196.0439077
20
-163.3629575
11
202.0194829
21
-159.9129575
0
LINE
8
0
10
202.0194829
20
-159.9129575
11
198.5694829
21
-153.9373823
0
LINE
8
0
10
198.5694829
20
-153.9373823
11
192.5939077
21
-157.3873823
0
LINE
8
0
10
192.5939077
20
-157.3873823
11
196.0439077
21
-163.3629575
0
ENDSEC
0
EOF