0
SECTION
2
HEADER
9
$INSUNITS
70
4
0
ENDSEC
0
SECTION
2
TABLES
0
TABLE
2
LTYPE
0
LTYPE
72
65
70
64
2
CONTINUOUS
3
______
73
0
40
0
0
ENDTAB
0
TABLE
2
LAYER
0
ENDTAB
0
ENDSEC
0
SECTION
2
ENTITIES
0
LINE
8
0
10
21.75
20
-107.9651278
11
21.75
21
28.0325986
0
LINE
8
0
10
22.2163411
20
28.5314644
11
149.7163411
21
37.1339936
0
LINE
8
0
10
150.25
20
36.6351278
11
150.25
21
-99.3625986
0
LINE
8
0
10
149.7836589
20
-99.8614644
11
22.2836589
21
-108.4639936
0
ARC
8
0
10
22.25
20
28.0325986
40
0.5
50
93.8599449
51
180
0
ARC
8
0
10
149.75
20
36.6351278
40
0.5
50
0
51
93.8599449
0
ARC
8
0
10
149.75
20
-99.3625986
40
0.5
50
273.8599449
51
0
0
ARC
8
0
10
22.25
20
-107.9651278
40
0.5
50
180
51
273.8599449
0
LINE
8
0
10
31.55
20
-86.45
11
38.45
21
-86.45
0
LINE
8
0
10
38.45
20
-86.45
11
38.45
21
-79.55
0
LINE
8
0
10
38.45
20
-79.55
11
31.55
21
-79.55
0
LINE
8
0
10
31.55
20
-79.55
11
31.55
21
-86.45
0
LINE
8
0
10
31.55
20
-69.45
11
38.45
21
-69.45
0
LINE
8
0
10
38.45
20
-69.45
11
38.45
21
-62.55
0
LINE
8
0
10
38.45
20
-62.55
11
31.55
21
-62.55
0
LINE
8
0
10
31.55
20
-62.55
11
31.55
21
-69.45
0
LINE
8
0
10
31.55
20
-52.45
11
38.45
21
-52.45
0
LINE
8
0
10
38.45
20
-52.45
11
38.45
21
-45.55
0
LINE
8
0
10
38.45
20
-45.55
11
31.55
21
-45.55
0
LINE
8
0
10
31.55
20
-45.55
11
31.55
21
-52.45
0
LINE
8
0
10
31.55
20
-35.45
11
38.45
21
-35.45
0
LINE
8
0
10
38.45
20
-35.45
11
38.45
21
-28.55
0
LINE
8
0
10
38.45
20
-28.55
11
31.55
21
-28.55
0
LINE
8
0
10
31.55
20
-28.55
11
31.55
21
-35.45
0
LINE
8
0
10
48.55
20
-99.2
11
55.45
21
-99.2
0
LINE
8
0
10
55.45
20
-99.2
11
55.45
21
-92.3
0
LINE
8
0
10
55.45
20
-92.3
11
48.55
21
-92.3
0
LINE
8
0
10
48.55
20
-92.3
11
48.55
21
-99.2
0
LINE
8
0
10
48.55
20
-82.2
11
55.45
21
-82.2
0
LINE
8
0
10
55.45
20
-82.2
11
55.45
21
-75.3
0
LINE
8
0
10
55.45
20
-75.3
11
48.55
21
-75.3
0
LINE
8
0
10
48.55
20
-75.3
11
48.55
21
-82.2
0
LINE
8
0
10
48.55
20
-65.2
11
55.45
21
-65.2
0
LINE
8
0
10
55.45
20
-65.2
11
55.45
21
-58.3
0
LINE
8
0
10
55.45
20
-58.3
11
48.55
21
-58.3
0
LINE
8
0
10
48.55
20
-58.3
11
48.55
21
-65.2
0
LINE
8
0
10
48.55
20
-48.2
11
55.45
21
-48.2
0
LINE
8
0
10
55.45
20
-48.2
11
55.45
21
-41.3
0
LINE
8
0
10
55.45
20
-41.3
11
48.55
21
-41.3
0
LINE
8
0
10
48.55
20
-41.3
11
48.55
21
-48.2
0
LINE
8
0
10
48.55
20
-31.2
11
55.45
21
-31.2
0
LINE
8
0
10
55.45
20
-31.2
11
55.45
21
-24.3
0
LINE
8
0
10
55.45
20
-24.3
11
48.55
21
-24.3
0
LINE
8
0
10
48.55
20
-24.3
11
48.55
21
-31.2
0
LINE
8
0
10
65.55
20
-87.98
11
72.45
21
-87.98
0
LINE
8
0
10
72.45
20
-87.98
11
72.45
21
-81.08
0
LINE
8
0
10
72.45
20
-81.08
11
65.55
21
-81.08
0
LINE
8
0
10
65.55
20
-81.08
11
65.55
21
-87.98
0
LINE
8
0
10
65.55
20
-70.98
11
72.45
21
-70.98
0
LINE
8
0
10
72.45
20
-70.98
11
72.45
21
-64.08
0
LINE
8
0
10
72.45
20
-64.08
11
65.55
21
-64.08
0
LINE
8
0
10
65.55
20
-64.08
11
65.55
21
-70.98
0
LINE
8
0
10
65.55
20
-53.98
11
72.45
21
-53.98
0
LINE
8
0
10
72.45
20
-53.98
11
72.45
21
-47.08
0
LINE
8
0
10
72.45
20
-47.08
11
65.55
21
-47.08
0
LINE
8
0
10
65.55
20
-47.08
11
65.55
21
-53.98
0
LINE
8
0
10
65.55
20
-36.98
11
72.45
21
-36.98
0
LINE
8
0
10
72.45
20
-36.98
11
72.45
21
-30.08
0
LINE
8
0
10
72.45
20
-30.08
11
65.55
21
-30.08
0
LINE
8
0
10
65.55
20
-30.08
11
65.55
21
-36.98
0
LINE
8
0
10
65.55
20
-19.98
11
72.45
21
-19.98
0
LINE
8
0
10
72.45
20
-19.98
11
72.45
21
-13.08
0
LINE
8
0
10
72.45
20
-13.08
11
65.55
21
-13.08
0
LINE
8
0
10
65.55
20
-13.08
11
65.55
21
-19.98
0
LINE
8
0
10
82.55
20
-75.23
11
89.45
21
-75.23
0
LINE
8
0
10
89.45
20
-75.23
11
89.45
21
-68.33
0
LINE
8
0
10
89.45
20
-68.33
11
82.55
21
-68.33
0
LINE
8
0
10
82.55
20
-68.33
11
82.55
21
-75.23
0
LINE
8
0
10
82.55
20
-58.23
11
89.45
21
-58.23
0
LINE
8
0
10
89.45
20
-58.23
11
89.45
21
-51.33
0
LINE
8
0
10
89.45
20
-51.33
11
82.55
21
-51.33
0
LINE
8
0
10
82.55
20
-51.33
11
82.55
21
-58.23
0
LINE
8
0
10
82.55
20
-41.23
11
89.45
21
-41.23
0
LINE
8
0
10
89.45
20
-41.23
11
89.45
21
-34.33
0
LINE
8
0
10
89.45
20
-34.33
11
82.55
21
-34.33
0
LINE
8
0
10
82.55
20
-34.33
11
82.55
21
-41.23
0
LINE
8
0
10
82.55
20
-24.23
11
89.45
21
-24.23
0
LINE
8
0
10
89.45
20
-24.23
11
89.45
21
-17.33
0
LINE
8
0
10
89.45
20
-17.33
11
82.55
21
-17.33
0
LINE
8
0
10
82.55
20
-17.33
11
82.55
21
-24.23
0
LINE
8
0
10
99.55
20
-77.78
11
106.45
21
-77.78
0
LINE
8
0
10
106.45
20
-77.78
11
106.45
21
-70.88
0
LINE
8
0
10
106.45
20
-70.88
11
99.55
21
-70.88
0
LINE
8
0
10
99.55
20
-70.88
11
99.55
21
-77.78
0
LINE
8
0
10
99.55
20
-60.78
11
106.45
21
-60.78
0
LINE
8
0
10
106.45
20
-60.78
11
106.45
21
-53.88
0
LINE
8
0
10
106.45
20
-53.88
11
99.55
21
-53.88
0
LINE
8
0
10
99.55
20
-53.88
11
99.55
21
-60.78
0
LINE
8
0
10
99.55
20
-43.78
11
106.45
21
-43.78
0
LINE
8
0
10
106.45
20
-43.78
11
106.45
21
-36.88
0
LINE
8
0
10
106.45
20
-36.88
11
99.55
21
-36.88
0
LINE
8
0
10
99.55
20
-36.88
11
99.55
21
-43.78
0
LINE
8
0
10
99.55
20
-26.78
11
106.45
21
-26.78
0
LINE
8
0
10
106.45
20
-26.78
11
106.45
21
-19.88
0
LINE
8
0
10
106.45
20
-19.88
11
99.55
21
-19.88
0
LINE
8
0
10
99.55
20
-19.88
11
99.55
21
-26.78
0
LINE
8
0
10
116.55
20
-81.18
11
123.45
21
-81.18
0
LINE
8
0
10
123.45
20
-81.18
11
123.45
21
-74.28
0
LINE
8
0
10
123.45
20
-74.28
11
116.55
21
-74.28
0
LINE
8
0
10
116.55
20
-74.28
11
116.55
21
-81.18
0
LINE
8
0
10
116.55
20
-64.18
11
123.45
21
-64.18
0
LINE
8
0
10
123.45
20
-64.18
11
123.45
21
-57.28
0
LINE
8
0
10
123.45
20
-57.28
11
116.55
21
-57.28
0
LINE
8
0
10
116.55
20
-57.28
11
116.55
21
-64.18
0
LINE
8
0
10
116.55
20
-47.18
11
123.45
21
-47.18
0
LINE
8
0
10
123.45
20
-47.18
11
123.45
21
-40.28
0
LINE
8
0
10
123.45
20
-40.28
11
116.55
21
-40.28
0
LINE
8
0
10
116.55
20
-40.28
11
116.55
21
-47.18
0
LINE
8
0
10
116.55
20
-30.18
11
123.45
21
-30.18
0
LINE
8
0
10
123.45
20
-30.18
11
123.45
21
-23.28
0
LINE
8
0
10
123.45
20
-23.28
11
116.55
21
-23.28
0
LINE
8
0
10
116.55
20
-23.28
11
116.55
21
-30.18
0
LINE
8
0
10
133.55
20
-77.78
11
140.45
21
-77.78
0
LINE
8
0
10
140.45
20
-77.78
11
140.45
21
-70.88
0
LINE
8
0
10
140.45
20
-70.88
11
133.55
21
-70.88
0
LINE
8
0
10
133.55
20
-70.88
11
133.55
21
-77.78
0
LINE
8
0
10
133.55
20
-60.78
11
140.45
21
-60.78
0
LINE
8
0
10
140.45
20
-60.78
11
140.45
21
-53.88
0
LINE
8
0
10
140.45
20
-53.88
11
133.55
21
-53.88
0
LINE
8
0
10
133.55
20
-53.88
11
133.55
21
-60.78
0
LINE
8
0
10
133.55
20
-43.78
11
140.45
21
-43.78
0
LINE
8
0
10
140.45
20
-43.78
11
140.45
21
-36.88
0
LINE
8
0
10
140.45
20
-36.88
11
133.55
21
-36.88
0
LINE
8
0
10
133.55
20
-36.88
11
133.55
21
-43.78
0
ENDSEC
0
EOF